<?xml version="1.0" encoding="UTF-8"?> <svg xmlns="http://www.w3.org/2000/svg" id="Layer_1" width="151.548mm" height="51.7928mm" viewBox="0 0 429.5848 146.8142"><defs><style>.cls-1{fill:#fff;}</style></defs><polygon class="cls-1" points="40.5994 146.8142 0 146.8142 0 0 87.7604 0 74.2779 27.8885 33.532 28.1774 33.532 79.0376 74.5669 79.0376 74.5669 111.2586 59.2397 111.2586 40.5994 146.8142"></polygon><path class="cls-1" d="M99.5663,0l-13.4825,27.8885V111.546h59.6085v-32.4909h-29.1622v-9.1043h29.1622s.8306-32.6605,0-32.6605h-29.6197v-9.4018h29.6197L159.1748,0"></path><polygon class="cls-1" points="169.1971 0 155.7146 27.8885 155.7146 111.546 215.993 111.546 215.993 79.0551 185.8534 79.0551 185.8534 0 169.1971 0"></polygon><polygon class="cls-1" points="236.9093 0 223.4269 27.8885 223.4269 111.546 283.0771 111.546 283.0771 79.0551 253.2516 79.0551 253.2516 27.8885 283.0771 27.8885 296.5596 0 236.9093 0"></polygon><path class="cls-1" d="M306.5819,0l-13.4825,27.8884V111.546h57.488V27.8884L364.0699,0h-57.488Zm27.692,79.0551h-23.4469V27.8884h23.4469v51.1666Z"></path><polygon class="cls-1" points="374.0922 0 360.6097 27.8885 360.6097 111.546 384.4006 111.546 384.4006 27.8885 407.1148 41.9308 407.1148 111.546 429.5848 111.546 429.5848 0 406.8706 0 406.8706 12.1337 389.0412 0 374.0922 0"></polygon></svg> 