<?xml version="1.0" encoding="UTF-8"?> <svg xmlns="http://www.w3.org/2000/svg" id="Layer_1" width="192.5011mm" height="66.8992mm" viewBox="0 0 545.6725 189.6354"><defs><style>.cls-1{fill:#fff;}.cls-2{fill:none;stroke:#c00d0d;stroke-miterlimit:10;stroke-width:9.7228px;}</style></defs><polygon class="cls-1" points="100.0617 179.9458 59.4617 179.9458 59.4617 33.1358 147.2217 33.1358 133.7417 61.0158 93.0017 61.3058 93.0017 112.1658 134.0317 112.1658 134.0317 144.3858 118.7017 144.3858 100.0617 179.9458"></polygon><path class="cls-1" d="M159.0317,33.1358l-13.48,27.88v83.66h59.61v-32.49h-29.16v-9.1h29.16s.83-32.66,0-32.66h-29.62v-9.4h29.62l13.48-27.89"></path><polygon class="cls-1" points="228.6617 33.1358 215.1817 61.0158 215.1817 144.6758 275.4617 144.6758 275.4617 112.1858 245.3217 112.1858 245.3217 33.1358 228.6617 33.1358"></polygon><polygon class="cls-1" points="296.3717 33.1358 282.8917 61.0158 282.8917 144.6758 342.5417 144.6758 342.5417 112.1858 312.7217 112.1858 312.7217 61.0158 342.5417 61.0158 356.0217 33.1358 296.3717 33.1358"></polygon><path class="cls-1" d="M366.0517,33.1358l-13.48,27.89v83.66h57.49V61.0158l13.47-27.88h-57.48Zm27.69,79.05h-23.45V61.0158h23.45v51.17Z"></path><polygon class="cls-1" points="433.5617 33.1358 420.0717 61.0158 420.0717 144.6758 443.8617 144.6758 443.8617 61.0158 466.5817 75.0658 466.5817 144.6758 489.0517 144.6758 489.0517 33.1358 466.3317 33.1358 466.3317 45.2658 448.5017 33.1358 433.5617 33.1358"></polygon><rect class="cls-2" x="4.8614" y="4.8614" width="535.9497" height="179.9126" rx="56.6929" ry="56.6929"></rect></svg> 