<svg xmlns="http://www.w3.org/2000/svg" width="60" height="60" viewBox="0 0 60 60">
  <g id="Cloud_Services_" data-name="Cloud Services " transform="translate(-560 -580)">
    <rect id="Rectangle_2" data-name="Rectangle 2" width="60" height="60" rx="30" transform="translate(560 580)" fill="#4fd6e5"/>
    <g id="Group_5" data-name="Group 5" transform="translate(-43.386 6.449)">
      <path id="Path_16" data-name="Path 16" d="M391.165,13.588h0a.806.806,0,1,0,0,1.613,5.645,5.645,0,0,1,5.645,5.645.806.806,0,0,0,1.613,0v0a7.257,7.257,0,0,0-7.257-7.257" transform="translate(244.584 579.025)" fill="#fff"/>
      <path id="Path_17" data-name="Path 17" d="M403.127,24.573a8.606,8.606,0,0,0-5.981-2.64,11.167,11.167,0,0,0-16-12.17,11.21,11.21,0,0,0-5.407,6.1,5.249,5.249,0,0,0-8.183,6.353,8.6,8.6,0,0,0-2.789,15.335A8.583,8.583,0,0,0,367.7,38.9l.8.157.808.081c.541.022,1.083.008,1.625.012h25.989a8.61,8.61,0,0,0,6.208-14.575m-1.293,10.943a7.014,7.014,0,0,1-4.915,2.019h-26.8l-.4,0-.331-.008-.658-.066-.647-.127a7,7,0,0,1-.118-13.557l2-.543-1-1.788a3.629,3.629,0,0,1,.97-4.606,3.618,3.618,0,0,1,4.7.206l1.759,1.636.852-2.262a9.6,9.6,0,0,1,4.628-5.221,9.56,9.56,0,0,1,13.688,10.414l-.391,1.887,1.93.045a7,7,0,0,1,4.729,11.971" transform="translate(250.24 580)" fill="#fff"/>
    </g>
  </g>
</svg>
