<svg xmlns="http://www.w3.org/2000/svg" width="60" height="60" viewBox="0 0 60 60">
  <g id="Cloud_Computing" data-name="Cloud Computing" transform="translate(-479 -236)">
    <rect id="Rectangle_17" data-name="Rectangle 17" width="60" height="60" rx="30" transform="translate(479 236)" fill="#4fd6e5"/>
    <g id="Path_720" data-name="Path 720" transform="translate(482.435 236.936)" fill="none" stroke-miterlimit="10">
      <path d="M39.354,27.307a9.3,9.3,0,0,0,.066-1.079,9.165,9.165,0,0,0-17.751-3.206A5.155,5.155,0,0,0,13.479,27.2c0,.073.008.144.01.216a7.474,7.474,0,0,0,2.554,14.5H37.087a7.478,7.478,0,0,0,2.267-14.6Z" stroke="none"/>
      <path d="M 30.25488090515137 19.06399536132813 C 28.76585960388184 19.06399536132813 27.33899116516113 19.51609802246094 26.12852096557617 20.37140655517578 C 24.94233131408691 21.20957565307617 24.04792976379395 22.36821746826172 23.54202079772949 23.72208786010742 L 22.62087059020996 26.18716812133789 L 20.4924201965332 24.6396369934082 C 19.94741058349609 24.24337768554688 19.30686187744141 24.03392791748047 18.64001083374023 24.03392791748047 C 16.90402603149414 24.03392791748047 15.49041748046875 25.44084930419922 15.47922897338867 27.17460823059082 C 15.47963333129883 27.18093490600586 15.48008346557617 27.1872501373291 15.48049926757813 27.19356727600098 C 15.48366928100586 27.24174690246582 15.486572265625 27.28993606567383 15.48833084106445 27.33846664428711 L 15.54132080078125 28.79271697998047 L 14.1739387512207 29.29059600830078 C 12.01531982421875 30.07657623291016 10.56499862670898 32.14334869384766 10.56499862670898 34.43348693847656 C 10.56499862670898 37.45416641235352 13.02251052856445 39.91167449951172 16.04319000244141 39.91167449951172 L 37.08681106567383 39.91167449951172 C 40.10749053955078 39.91167449951172 42.56500244140625 37.45416641235352 42.56500244140625 34.43348693847656 C 42.56500244140625 33.24717712402344 42.1923828125 32.11905670166016 41.48741912841797 31.17107772827148 C 40.80448913574219 30.2526969909668 39.83163070678711 29.55734634399414 38.74806213378906 29.21309661865234 L 37.17597198486328 28.71364593505859 L 37.36709976196289 27.07523727416992 C 37.40219116210938 26.77448654174805 37.41924285888672 26.49725723266602 37.41924285888672 26.22769546508789 C 37.41924285888672 22.27761840820313 34.205322265625 19.06399536132813 30.25488090515137 19.06399536132813 M 30.25488090515137 17.06399536132813 C 35.31600952148438 17.06399536132813 39.41924285888672 21.16656494140625 39.41924285888672 26.22769546508789 C 39.41924285888672 26.59314727783203 39.39495849609375 26.95268630981445 39.35363006591797 27.30697631835938 C 42.37495040893555 28.26684761047363 44.56500244140625 31.09330749511719 44.56500244140625 34.43348693847656 C 44.56500244140625 38.56361770629883 41.21694183349609 41.91167449951172 37.08681106567383 41.91167449951172 L 16.04319000244141 41.91167449951172 C 11.91305923461914 41.91167449951172 8.564998626708984 38.56361770629883 8.564998626708984 34.43348693847656 C 8.564998626708984 31.20090675354004 10.61923217773438 28.45645713806152 13.48966217041016 27.41129684448242 C 13.48703002929688 27.3391170501709 13.47916030883789 27.26826667785645 13.47916030883789 27.19543647766113 C 13.47916030883789 24.34469604492188 15.78993225097656 22.03392791748047 18.64001083374023 22.03392791748047 C 19.77309036254883 22.03392791748047 20.81760025024414 22.40330505371094 21.66855049133301 23.02200698852539 C 22.96893119812012 19.54207611083984 26.32159042358398 17.06399536132813 30.25488090515137 17.06399536132813 Z" stroke="none" fill="#fff"/>
    </g>
  </g>
</svg>
