<?xml version="1.0" encoding="UTF-8"?>
<svg width="190px" height="44px" viewBox="0 0 190 44" version="1.1" xmlns="http://www.w3.org/2000/svg" xmlns:xlink="http://www.w3.org/1999/xlink">
    <title>63350DB3-2756-4EBC-B98A-9ECD97827A2C</title>
    <g id="Styleguide" stroke="none" stroke-width="1" fill="none" fill-rule="evenodd">
        <g id="SSI-Styleguide" transform="translate(-133.000000, -3267.000000)">
            <g id="ssi_logo" transform="translate(133.000000, 3267.000000)">
                <path d="M1.42108547e-14,44 L44,44 L44,0 L1.42108547e-14,0 L1.42108547e-14,44 Z M15.4866001,29.4967235 C14.1831247,30.602341 12.4372034,31.0666606 10.7588919,31.0666606 C8.66000813,31.0666606 6.60487188,30.3587472 4.90369232,29.1646405 L6.7599765,25.6737922 C7.84272608,26.6252994 9.12333348,27.3978397 10.6037872,27.3978397 C11.6209156,27.3978397 12.7026709,26.8897727 12.7026709,25.7185339 C12.7026709,24.5035477 11.0014914,24.0839698 10.0738464,23.8185023 C7.35653274,23.0459619 5.56686401,22.3380485 5.56686401,19.1126678 C5.56686401,15.7311881 7.97496272,13.5219415 11.3107064,13.5219415 C12.9900122,13.5219415 15.0451485,14.0528766 16.5256022,14.8920324 L14.8025489,18.250644 C14.0061463,17.5874723 12.9900122,17.1460207 11.9301306,17.1460207 C11.1347223,17.1460207 10.0738464,17.6103403 10.0738464,18.536991 C10.0738464,19.5103719 11.2450852,19.8862024 11.9957518,20.1288019 L13.1013694,20.4598906 C15.4209789,21.1449361 17.2106476,22.3171691 17.2106476,25.0106205 C17.2106476,26.6690469 16.8129435,28.3702264 15.4866001,29.4967235 L15.4866001,29.4967235 Z M29.0970308,29.4967235 C27.7935554,30.602341 26.0476341,31.0666606 24.3683283,31.0666606 C22.2694446,31.0666606 20.2153026,30.3587472 18.514123,29.1646405 L20.3694129,25.6737922 C21.4521625,26.6252994 22.7337642,27.3978397 24.2142179,27.3978397 C25.2303521,27.3978397 26.3131016,26.8897727 26.3131016,25.7185339 C26.3131016,24.5035477 24.6119221,24.0839698 23.6842771,23.8185023 C20.9659692,23.0459619 19.1763004,22.3380485 19.1763004,19.1126678 C19.1763004,15.7311881 21.5843992,13.5219415 24.9211371,13.5219415 C26.6004429,13.5219415 28.6545849,14.0528766 30.1360329,14.8920324 L28.4119854,18.250644 C27.616577,17.5874723 26.6004429,17.1460207 25.539567,17.1460207 C24.7441587,17.1460207 23.6842771,17.6103403 23.6842771,18.536991 C23.6842771,19.5103719 24.8545216,19.8862024 25.6061825,20.1288019 L26.7108058,20.4598906 C29.0304153,21.1449361 30.8210783,22.3171691 30.8210783,25.0106205 C30.8210783,26.6690469 30.4223799,28.3702264 29.0970308,29.4967235 L29.0970308,29.4967235 Z M33.565237,30.6232205 L37.8962354,30.6232205 L37.8962354,13.9633931 L33.565237,13.9633931 L33.565237,30.6232205 Z" id="Fill-2" fill="#CC0033"></path>
                <path d="M152.806235,28.2570056 C153.218265,28.2570056 153.577197,28.3184054 153.883034,28.4422635 C154.18887,28.565063 154.443733,28.7460864 154.646562,28.9842751 C154.849391,29.2203466 155.000185,29.5135834 155.100007,29.8629268 C155.199829,30.2122702 155.249739,30.6124273 155.249739,31.0633979 C155.249739,31.5143685 155.196643,31.9208772 155.089388,32.2839827 C154.983195,32.6460295 154.822843,32.9540869 154.611519,33.2081549 C154.400194,33.4632814 154.13365,33.6580669 153.814008,33.7946284 C153.493305,33.9311899 153.120567,34 152.693671,34 C152.273146,34 151.908903,33.9375416 151.602005,33.8115663 C151.294045,33.6866495 151.040243,33.5056261 150.8406,33.2663788 C150.638833,33.0281901 150.491225,32.7317775 150.392465,32.3781996 C150.294768,32.0246217 150.245919,31.6191715 150.245919,31.1586734 C150.245919,30.7182889 150.299015,30.3191905 150.405209,29.9592609 C150.512464,29.6003899 150.672815,29.2944498 150.886263,29.0435577 C151.09865,28.7916069 151.366256,28.5978801 151.685898,28.4623772 C152.005539,28.3247571 152.379339,28.2570056 152.806235,28.2570056 Z M54.6385393,28.3123713 C54.7107507,28.3123713 54.7702188,28.3166057 54.8180057,28.3229574 C54.8657926,28.3303677 54.9029602,28.3388367 54.9326943,28.3494228 C54.9613665,28.3589504 54.9815432,28.3727124 54.9932244,28.3907089 C55.0049056,28.4076467 55.0102153,28.4277605 55.0102153,28.45105 L55.0102153,33.8055322 C55.0102153,33.8288217 55.0049056,33.8489354 54.9932244,33.8658733 C54.9815432,33.8828112 54.9613665,33.8965732 54.9326943,33.9071593 C54.9029602,33.9166869 54.8657926,33.9251558 54.8180057,33.9325661 C54.7702188,33.9399764 54.7107507,33.9442109 54.6385393,33.9442109 C54.5684519,33.9442109 54.5100456,33.9399764 54.4611968,33.9325661 C54.411286,33.9251558 54.3730565,33.9166869 54.3443843,33.9071593 C54.3157122,33.8965732 54.2955355,33.8828112 54.2838543,33.8658733 C54.272173,33.8489354 54.2658014,33.8288217 54.2658014,33.8055322 L54.2658014,28.45105 C54.2658014,28.4277605 54.2732349,28.4076467 54.2859781,28.3907089 C54.2987213,28.3727124 54.3199599,28.3589504 54.3507559,28.3494228 C54.38049,28.3388367 54.4197815,28.3303677 54.4675684,28.3229574 C54.5153553,28.3166057 54.5716377,28.3123713 54.6385393,28.3123713 Z M142.235877,28.3123713 C142.308088,28.3123713 142.367556,28.3166057 142.414281,28.3229574 C142.46313,28.3303677 142.50136,28.3388367 142.530032,28.3494228 C142.558704,28.3589504 142.578881,28.3727124 142.590562,28.3907089 C142.602243,28.4076467 142.607553,28.4277605 142.607553,28.45105 L142.607553,33.8055322 C142.607553,33.8288217 142.602243,33.8489354 142.590562,33.8658733 C142.578881,33.8828112 142.558704,33.8965732 142.530032,33.9071593 C142.50136,33.9166869 142.46313,33.9251558 142.414281,33.9325661 C142.367556,33.9399764 142.308088,33.9442109 142.235877,33.9442109 C142.166851,33.9442109 142.107383,33.9399764 142.058534,33.9325661 C142.009685,33.9251558 141.970394,33.9166869 141.941722,33.9071593 C141.91305,33.8965732 141.892873,33.8828112 141.881192,33.8658733 C141.86951,33.8489354 141.863139,33.8288217 141.863139,33.8055322 L141.863139,28.45105 C141.863139,28.4277605 141.870572,28.4076467 141.883316,28.3907089 C141.896059,28.3727124 141.917297,28.3589504 141.947031,28.3494228 C141.977827,28.3388367 142.016057,28.3303677 142.065968,28.3229574 C142.112693,28.3166057 142.168975,28.3123713 142.235877,28.3123713 Z M66.8286618,28.3258157 C66.8955635,28.3258157 66.9539697,28.3279329 67.0017566,28.3342846 C67.0516674,28.3395777 67.088835,28.3491052 67.1164452,28.3618086 C67.1440554,28.374512 67.1631702,28.3903913 67.1759134,28.4073292 C67.1886565,28.424267 67.1939662,28.4433221 67.1939662,28.4634358 L67.1939662,33.6114878 C67.1939662,33.668653 67.1833469,33.7173494 67.165294,33.7575768 C67.1461793,33.7988629 67.119631,33.83168 67.088835,33.8570868 C67.056977,33.8835522 67.0229952,33.9015487 66.9837038,33.9131934 C66.9454742,33.9248382 66.9061828,33.9301313 66.8679533,33.9301313 L66.6215852,33.9301313 C66.5440642,33.9301313 66.4761006,33.922721 66.4176944,33.9068418 C66.3603501,33.8909625 66.3040677,33.8623799 66.253095,33.8210938 C66.1999984,33.7787492 66.1479638,33.7215839 66.0969911,33.6506566 C66.0428326,33.5786706 65.9876122,33.486571 65.9292059,33.3743577 L64.2226822,30.2006255 C64.13348,30.0375985 64.0432158,29.865044 63.9518897,29.6861379 C63.8605636,29.5061731 63.7766711,29.3315013 63.6991501,29.1621227 L63.6906546,29.1621227 C63.6959643,29.3685529 63.7012739,29.5792176 63.7033978,29.796234 C63.7065836,30.0111331 63.7076455,30.2249736 63.7076455,30.4377556 L63.7076455,33.8052146 C63.7076455,33.8253283 63.7023359,33.845442 63.6895927,33.8634385 C63.6768495,33.8824936 63.6566728,33.8973142 63.6280007,33.9068418 C63.5993285,33.9163693 63.561099,33.9258968 63.514374,33.9322485 C63.467649,33.9396589 63.407119,33.9438933 63.3338457,33.9438933 C63.2605724,33.9438933 63.2000423,33.9396589 63.1533174,33.9322485 C63.1055305,33.9258968 63.0694248,33.9163693 63.0418146,33.9068418 C63.0142044,33.8973142 62.9950896,33.8824936 62.9823464,33.8634385 C62.9696032,33.845442 62.9642936,33.8253283 62.9642936,33.8052146 L62.9642936,28.6571626 C62.9642936,28.5428321 62.9961515,28.46026 63.0619913,28.4115636 C63.127831,28.3628673 63.1989804,28.3385191 63.2765014,28.3385191 L63.6418058,28.3385191 C63.7288842,28.3385191 63.8000336,28.3459294 63.8584398,28.3596914 C63.916846,28.374512 63.9688806,28.3978016 64.0145437,28.4306187 C64.0612687,28.4644944 64.1058698,28.510015 64.149409,28.5692975 C64.1929482,28.6275214 64.2375493,28.7016245 64.2853362,28.7916069 L65.5968214,31.2401868 C65.6785901,31.3883932 65.7561111,31.5355408 65.8315083,31.6773955 C65.9069054,31.8203087 65.9791167,31.960046 66.0492042,32.0976662 C66.1182297,32.236345 66.1872553,32.3718479 66.2562808,32.5052335 C66.3231825,32.6396778 66.3911461,32.7730635 66.4591097,32.9085664 L66.4633574,32.9085664 C66.4569858,32.6820225 66.4538,32.4448924 66.4516762,32.1992934 C66.4506142,31.9536944 66.4495523,31.7176229 66.4495523,31.4900203 L66.4495523,28.4634358 C66.4495523,28.4433221 66.4559239,28.424267 66.4686671,28.4073292 C66.4803483,28.3903913 66.5015869,28.374512 66.5302591,28.3618086 C66.5589312,28.3491052 66.5971608,28.3395777 66.6438857,28.3342846 C66.6906107,28.3279329 66.7522027,28.3258157 66.8286618,28.3258157 Z M176.701815,28.3129006 C176.794203,28.3129006 176.871724,28.3150178 176.932254,28.3192523 C176.992784,28.3234867 177.040571,28.330897 177.0788,28.3425418 C177.11703,28.3541866 177.145702,28.3711245 177.165879,28.3922968 C177.187117,28.4134691 177.201984,28.4409932 177.213666,28.471693 L179.09116,33.6546793 C179.113461,33.7181963 179.126204,33.7690099 179.127266,33.8081787 C179.128328,33.8462889 179.117709,33.8759301 179.095408,33.8960439 C179.070984,33.9161576 179.033816,33.928861 178.979658,33.9352127 C178.926561,33.9394471 178.85435,33.9436816 178.766209,33.9436816 C178.677007,33.9436816 178.604796,33.9415644 178.551699,33.9373299 C178.498603,33.9330954 178.458249,33.9256851 178.430639,33.915099 C178.403029,33.9055714 178.382852,33.8918094 178.370109,33.8748715 C178.357366,33.8568751 178.344623,33.8357027 178.332941,33.8102959 L177.852948,32.452091 L175.527319,32.452091 L175.067502,33.7922994 C175.060069,33.8187649 175.048388,33.8409958 175.034583,33.8589923 C175.018654,33.8780474 174.998477,33.8939266 174.970867,33.90663 C174.943256,33.9193334 174.903965,33.928861 174.854054,33.9352127 C174.803082,33.9394471 174.738304,33.9436816 174.657597,33.9436816 C174.574766,33.9436816 174.504679,33.9394471 174.451582,33.9330954 C174.398486,33.9256851 174.361318,33.9119231 174.339018,33.8918094 C174.317779,33.8716957 174.30716,33.8420544 174.309283,33.8039442 C174.310345,33.7647754 174.323089,33.7139618 174.345389,33.6504448 L176.222884,28.4674586 C176.235627,28.4357001 176.249432,28.4102933 176.268547,28.389121 C176.2866,28.3700659 176.31421,28.3541866 176.350315,28.3425418 C176.386421,28.330897 176.433146,28.3234867 176.488367,28.3192523 C176.544649,28.3150178 176.61686,28.3129006 176.701815,28.3129006 Z M166.580228,28.3258157 C166.64713,28.3258157 166.705536,28.3279329 166.753323,28.3342846 C166.803234,28.3395777 166.83934,28.3491052 166.868012,28.3618086 C166.895622,28.374512 166.914737,28.3903913 166.92748,28.4073292 C166.940223,28.424267 166.945533,28.4433221 166.945533,28.4634358 L166.945533,33.6114878 C166.945533,33.668653 166.934913,33.7173494 166.916861,33.7575768 C166.896684,33.7988629 166.871198,33.83168 166.83934,33.8570868 C166.809606,33.8835522 166.774562,33.9015487 166.73527,33.9131934 C166.697041,33.9248382 166.657749,33.9301313 166.618458,33.9301313 L166.374214,33.9301313 C166.295631,33.9301313 166.226605,33.922721 166.169261,33.9068418 C166.111917,33.8909625 166.055634,33.8623799 166.004662,33.8210938 C165.951565,33.7787492 165.89953,33.7215839 165.847496,33.6506566 C165.794399,33.5786706 165.739179,33.486571 165.680773,33.3743577 L163.975311,30.2006255 C163.885047,30.0375985 163.794782,29.865044 163.703456,29.6861379 C163.613192,29.5061731 163.528238,29.3315013 163.451779,29.1621227 L163.442221,29.1621227 C163.447531,29.3685529 163.452841,29.5792176 163.454964,29.796234 C163.457088,30.0111331 163.459212,30.2249736 163.459212,30.4377556 L163.459212,33.8052146 C163.459212,33.8253283 163.454964,33.845442 163.441159,33.8634385 C163.428416,33.8824936 163.408239,33.8973142 163.379567,33.9068418 C163.350895,33.9163693 163.312666,33.9258968 163.265941,33.9322485 C163.219216,33.9396589 163.158686,33.9438933 163.085412,33.9438933 C163.012139,33.9438933 162.951609,33.9396589 162.904884,33.9322485 C162.857097,33.9258968 162.820991,33.9163693 162.793381,33.9068418 C162.765771,33.8973142 162.746656,33.8824936 162.733913,33.8634385 C162.720108,33.845442 162.71586,33.8253283 162.71586,33.8052146 L162.71586,28.6571626 C162.71586,28.5428321 162.747718,28.46026 162.812496,28.4115636 C162.879398,28.3628673 162.950547,28.3385191 163.028068,28.3385191 L163.393372,28.3385191 C163.480451,28.3385191 163.552662,28.3459294 163.610006,28.3596914 C163.669475,28.374512 163.720447,28.3978016 163.76611,28.4306187 C163.812835,28.4644944 163.856374,28.510015 163.900976,28.5692975 C163.944515,28.6275214 163.989116,28.7016245 164.036903,28.7916069 L165.348388,31.2401868 C165.429095,31.3883932 165.507678,31.5355408 165.582013,31.6773955 C165.658472,31.8203087 165.730683,31.960046 165.799709,32.0976662 C165.869796,32.236345 165.938822,32.3718479 166.007847,32.5052335 C166.075811,32.6396778 166.143775,32.7730635 166.210676,32.9085664 L166.214924,32.9085664 C166.208552,32.6820225 166.205367,32.4448924 166.203243,32.1992934 L166.201783,31.8379082 L166.201783,31.8379082 L166.201119,28.4634358 C166.201119,28.4433221 166.20749,28.424267 166.219172,28.4073292 C166.231915,28.3903913 166.253154,28.374512 166.281826,28.3618086 C166.310498,28.3491052 166.347665,28.3395777 166.395452,28.3342846 C166.442177,28.3279329 166.503769,28.3258157 166.580228,28.3258157 Z M111.862197,28.3258157 C111.929099,28.3258157 111.987505,28.3279329 112.035292,28.3342846 C112.085203,28.3395777 112.121309,28.3491052 112.149981,28.3618086 C112.177591,28.374512 112.196706,28.3903913 112.209449,28.4073292 C112.222192,28.424267 112.227502,28.4433221 112.227502,28.4634358 L112.227502,33.6114878 C112.227502,33.668653 112.216882,33.7173494 112.19883,33.7575768 C112.178653,33.7988629 112.153167,33.83168 112.121309,33.8570868 C112.091575,33.8835522 112.056531,33.9015487 112.017239,33.9131934 C111.97901,33.9248382 111.939718,33.9301313 111.900427,33.9301313 L111.656183,33.9301313 C111.5776,33.9301313 111.508574,33.922721 111.45123,33.9068418 C111.393886,33.8909625 111.337603,33.8623799 111.286631,33.8210938 C111.233534,33.7787492 111.181499,33.7215839 111.129465,33.6506566 C111.076368,33.5786706 111.021148,33.486571 110.962742,33.3743577 L109.25728,30.2006255 C109.167016,30.0375985 109.076751,29.865044 108.985425,29.6861379 C108.895161,29.5061731 108.810207,29.3315013 108.733748,29.1621227 L108.72419,29.1621227 C108.7295,29.3685529 108.73481,29.5792176 108.736933,29.796234 C108.739057,30.0111331 108.741181,30.2249736 108.741181,30.4377556 L108.741181,33.8052146 C108.741181,33.8253283 108.736933,33.845442 108.723128,33.8634385 C108.710385,33.8824936 108.690208,33.8973142 108.661536,33.9068418 C108.632864,33.9163693 108.594635,33.9258968 108.54791,33.9322485 C108.501185,33.9396589 108.440655,33.9438933 108.367381,33.9438933 C108.294108,33.9438933 108.233578,33.9396589 108.186853,33.9322485 C108.139066,33.9258968 108.10296,33.9163693 108.07535,33.9068418 C108.04774,33.8973142 108.028625,33.8824936 108.015882,33.8634385 C108.002077,33.845442 107.997829,33.8253283 107.997829,33.8052146 L107.997829,28.6571626 C107.997829,28.5428321 108.029687,28.46026 108.094465,28.4115636 C108.161367,28.3628673 108.232516,28.3385191 108.310037,28.3385191 L108.675341,28.3385191 C108.76242,28.3385191 108.834631,28.3459294 108.891975,28.3596914 C108.951444,28.374512 109.002416,28.3978016 109.048079,28.4306187 C109.094804,28.4644944 109.138343,28.510015 109.182945,28.5692975 C109.226484,28.6275214 109.271085,28.7016245 109.318872,28.7916069 L110.630357,31.2401868 C110.711064,31.3883932 110.789647,31.5355408 110.863982,31.6773955 C110.940441,31.8203087 111.012652,31.960046 111.081678,32.0976662 C111.151765,32.236345 111.220791,32.3718479 111.289816,32.5052335 C111.35778,32.6396778 111.424682,32.7730635 111.492645,32.9085664 L111.496893,32.9085664 C111.490521,32.6820225 111.487336,32.4448924 111.485212,32.1992934 L111.483752,31.8379082 L111.483752,31.8379082 L111.483088,28.4634358 C111.483088,28.4433221 111.489459,28.424267 111.501141,28.4073292 C111.513884,28.3903913 111.535123,28.374512 111.563795,28.3618086 C111.592467,28.3491052 111.629634,28.3395777 111.677421,28.3342846 C111.723084,28.3279329 111.785738,28.3258157 111.862197,28.3258157 Z M78.5088448,28.3388367 C78.5311454,28.3388367 78.552384,28.3441298 78.5714988,28.3557745 C78.5895516,28.3674193 78.6065425,28.3854158 78.6182238,28.4118812 C78.6320289,28.437288 78.6405243,28.4711637 78.6468959,28.5135084 C78.6522056,28.5547944 78.6553914,28.6024322 78.6553914,28.6574802 C78.6553914,28.7125283 78.6522056,28.7591074 78.6468959,28.7993348 C78.6405243,28.8395623 78.6320289,28.8723794 78.6182238,28.8967276 C78.6065425,28.9210757 78.5895516,28.9390722 78.5714988,28.950717 C78.552384,28.9623618 78.5311454,28.9676549 78.5088448,28.9676549 L76.9340006,28.9676549 L76.9340006,33.8055322 C76.9340006,33.8288217 76.928691,33.8489354 76.9170097,33.8658733 C76.9053285,33.8828112 76.8851518,33.8965732 76.8554177,33.9071593 C76.8267456,33.9166869 76.789578,33.9251558 76.741791,33.9325661 C76.6940041,33.9399764 76.634536,33.9431523 76.5623246,33.9431523 C76.4922372,33.9431523 76.433831,33.9399764 76.3849821,33.9325661 C76.3350713,33.9251558 76.2968418,33.9166869 76.2681697,33.9071593 C76.2394975,33.8965732 76.2193208,33.8828112 76.2076396,33.8658733 C76.1959583,33.8489354 76.1906487,33.8288217 76.1906487,33.8055322 L76.1906487,28.9676549 L74.6158045,28.9676549 C74.592442,28.9676549 74.5722653,28.9623618 74.5531505,28.950717 C74.5340358,28.9390722 74.5191687,28.9210757 74.5074875,28.8967276 C74.4958062,28.8723794 74.4873108,28.8395623 74.4798773,28.7993348 C74.4724437,28.7591074 74.468196,28.7125283 74.468196,28.6574802 C74.468196,28.6024322 74.4724437,28.5547944 74.4798773,28.5135084 C74.4873108,28.4711637 74.4958062,28.437288 74.5074875,28.4118812 C74.5191687,28.3854158 74.5340358,28.3674193 74.5531505,28.3557745 C74.5722653,28.3441298 74.592442,28.3388367 74.6158045,28.3388367 L78.5088448,28.3388367 Z M98.188132,28.3377781 C98.3304308,28.3377781 98.4472433,28.3420125 98.5406932,28.3494228 C98.6341432,28.3568331 98.7190977,28.3642435 98.7944948,28.3727124 C99.0111288,28.4108226 99.2012145,28.4690465 99.3668758,28.5495013 C99.5325371,28.6299562 99.6716501,28.732642 99.7831529,28.8554415 C99.8967796,28.9792996 99.9806722,29.1211542 100.036955,29.2810053 C100.093237,29.4397978 100.120847,29.6165868 100.120847,29.8081963 C100.120847,29.9955715 100.096423,30.1628329 100.04545,30.3110392 C99.9955392,30.4592455 99.9222659,30.5894553 99.8277541,30.7037859 C99.7321802,30.8170578 99.6185536,30.9155092 99.4858122,30.9991399 C99.3520088,31.081712 99.2044003,31.1526393 99.0408629,31.2098046 C99.1332509,31.250032 99.2160816,31.3008456 99.2904168,31.3633039 C99.3658139,31.4247037 99.4359014,31.4988069 99.5006792,31.5856134 C99.565457,31.6713613 99.6259871,31.7708713 99.6854553,31.882026 C99.7427995,31.9942394 99.8001438,32.1212733 99.8574881,32.2620693 L100.359782,33.4911231 C100.399073,33.5938089 100.426683,33.6668534 100.437303,33.7081394 C100.448984,33.7504841 100.455355,33.7822426 100.455355,33.8055322 C100.455355,33.8288217 100.450046,33.8489354 100.44155,33.8658733 C100.431993,33.8828112 100.41394,33.8976318 100.385268,33.9092766 C100.356596,33.9209213 100.316242,33.9293903 100.264208,33.9346834 C100.212173,33.9410351 100.14421,33.9431523 100.057131,33.9431523 C99.9817341,33.9431523 99.9201421,33.9410351 99.8734171,33.9346834 C99.8256302,33.9293903 99.7863387,33.9198627 99.7576666,33.9071593 C99.7289944,33.8933973 99.7066939,33.8764595 99.6918268,33.8531699 C99.6758979,33.8298803 99.6610308,33.8012977 99.6504115,33.7663633 L99.1343129,32.4515617 C99.0737828,32.3022968 99.0121908,32.1646766 98.947413,32.0397599 C98.8826351,31.9148431 98.8051142,31.8068642 98.7159119,31.7168818 C98.6267097,31.6258408 98.5205165,31.5559721 98.3994564,31.5051585 C98.2783962,31.4554036 98.1339735,31.4299968 97.9640645,31.4299968 L97.4660187,31.4299968 L97.4660187,33.8055322 C97.4660187,33.8288217 97.4596471,33.8489354 97.4469039,33.8658733 C97.4330988,33.8828112 97.4129221,33.8965732 97.3863739,33.9071593 C97.3587636,33.9166869 97.321596,33.9251558 97.2738091,33.9325661 C97.2260222,33.9399764 97.1654921,33.9431523 97.0943427,33.9431523 C97.0221314,33.9431523 96.9626632,33.9399764 96.9148763,33.9325661 C96.8670894,33.9251558 96.827798,33.9166869 96.7991258,33.9071593 C96.7704537,33.8965732 96.7513389,33.8828112 96.7385957,33.8658733 C96.7279764,33.8489354 96.7216048,33.8288217 96.7216048,33.8055322 L96.7216048,28.6405424 C96.7216048,28.528329 96.7513389,28.4499914 96.8108071,28.4055295 C96.8702752,28.3610676 96.9329292,28.3377781 96.9987689,28.3377781 L98.188132,28.3377781 Z M121.983678,28.3129006 C122.076066,28.3129006 122.153587,28.3150178 122.214117,28.3192523 C122.274647,28.3234867 122.322434,28.330897 122.360663,28.3425418 C122.398893,28.3541866 122.427565,28.3711245 122.447742,28.3922968 C122.46898,28.4134691 122.483847,28.4409932 122.495528,28.471693 L124.373023,33.6546793 C124.395324,33.7181963 124.408067,33.7690099 124.409129,33.8081787 C124.410191,33.8462889 124.399571,33.8759301 124.377271,33.8960439 C124.352846,33.9161576 124.315679,33.928861 124.26152,33.9352127 C124.208424,33.9394471 124.136212,33.9436816 124.048072,33.9436816 C123.95887,33.9436816 123.886659,33.9415644 123.833562,33.9373299 C123.780465,33.9330954 123.740112,33.9256851 123.712502,33.915099 C123.684892,33.9055714 123.664715,33.8918094 123.651972,33.8748715 C123.639229,33.8568751 123.626485,33.8357027 123.614804,33.8102959 L123.135873,32.452091 L120.809181,32.452091 L120.349365,33.7922994 C120.341932,33.8187649 120.33025,33.8409958 120.316445,33.8589923 C120.301578,33.8780474 120.28034,33.8939266 120.252729,33.90663 C120.225119,33.9193334 120.18689,33.928861 120.135917,33.9352127 C120.086006,33.9394471 120.020166,33.9436816 119.93946,33.9436816 C119.856629,33.9436816 119.787604,33.9394471 119.733445,33.9330954 C119.680348,33.9256851 119.643181,33.9119231 119.62088,33.8918094 C119.599642,33.8716957 119.590084,33.8420544 119.591146,33.8039442 C119.592208,33.7647754 119.604951,33.7139618 119.628314,33.6504448 L121.504747,28.4674586 C121.51749,28.4357001 121.531295,28.4102933 121.55041,28.389121 C121.568462,28.3700659 121.596073,28.3541866 121.632178,28.3425418 C121.668284,28.330897 121.715009,28.3234867 121.771291,28.3192523 C121.826512,28.3150178 121.898723,28.3129006 121.983678,28.3129006 Z M134.442362,28.3388367 C134.464663,28.3388367 134.48484,28.3441298 134.505016,28.3557745 C134.523069,28.3674193 134.54006,28.3854158 134.551741,28.4118812 C134.565547,28.437288 134.574042,28.4711637 134.580414,28.5135084 C134.585723,28.5547944 134.588909,28.6024322 134.588909,28.6574802 C134.588909,28.7125283 134.585723,28.7591074 134.580414,28.7993348 C134.574042,28.8395623 134.565547,28.8723794 134.551741,28.8967276 C134.54006,28.9210757 134.523069,28.9390722 134.505016,28.950717 C134.48484,28.9623618 134.464663,28.9676549 134.442362,28.9676549 L132.867518,28.9676549 L132.867518,33.8055322 C132.867518,33.8288217 132.862209,33.8489354 132.850527,33.8658733 C132.838846,33.8828112 132.818669,33.8965732 132.789997,33.9071593 C132.761325,33.9166869 132.723096,33.9251558 132.675309,33.9325661 C132.627522,33.9399764 132.568054,33.9431523 132.495842,33.9431523 C132.426817,33.9431523 132.367349,33.9399764 132.3185,33.9325661 C132.269651,33.9251558 132.230359,33.9166869 132.201687,33.9071593 C132.173015,33.8965732 132.152838,33.8828112 132.141157,33.8658733 C132.129476,33.8489354 132.123104,33.8288217 132.123104,33.8055322 L132.123104,28.9676549 L130.549322,28.9676549 C130.52596,28.9676549 130.505783,28.9623618 130.485606,28.950717 C130.467553,28.9390722 130.452686,28.9210757 130.441005,28.8967276 C130.429324,28.8723794 130.420828,28.8395623 130.413395,28.7993348 C130.405961,28.7591074 130.401714,28.7125283 130.401714,28.6574802 C130.401714,28.6024322 130.405961,28.5547944 130.413395,28.5135084 C130.420828,28.4711637 130.429324,28.437288 130.441005,28.4118812 C130.452686,28.3854158 130.467553,28.3674193 130.485606,28.3557745 C130.505783,28.3441298 130.52596,28.3388367 130.549322,28.3388367 L134.442362,28.3388367 Z M186.862162,28.3127947 C186.934373,28.3127947 186.994903,28.3159706 187.041628,28.3233809 C187.089415,28.3307912 187.128706,28.3392601 187.157379,28.3487877 C187.186051,28.3593738 187.205165,28.3731358 187.217909,28.3900737 C187.228528,28.4070116 187.2349,28.4281839 187.2349,28.4504148 L187.2349,33.2755887 L189.240888,33.2755887 C189.267436,33.2755887 189.289737,33.2819404 189.308852,33.2946438 C189.326904,33.3073472 189.342833,33.3264023 189.355576,33.3507505 C189.369382,33.3750987 189.377877,33.4079158 189.383187,33.4481432 C189.389558,33.4883707 189.392744,33.537067 189.392744,33.5942323 C189.392744,33.6513976 189.389558,33.700094 189.383187,33.7382041 C189.377877,33.777373 189.369382,33.8101901 189.355576,33.8377141 C189.342833,33.8652381 189.326904,33.8864105 189.308852,33.8980552 C189.289737,33.9107586 189.267436,33.9181689 189.240888,33.9181689 L186.766588,33.9181689 C186.70181,33.9181689 186.638094,33.8948794 186.579688,33.8504175 C186.52022,33.8059556 186.489424,33.727618 186.489424,33.6154046 L186.489424,28.4504148 C186.489424,28.4281839 186.496857,28.4070116 186.507477,28.3900737 C186.519158,28.3731358 186.539335,28.3593738 186.568007,28.3487877 C186.597741,28.3392601 186.637032,28.3307912 186.684819,28.3233809 C186.733668,28.3159706 186.794198,28.3127947 186.862162,28.3127947 Z M88.8634189,28.3385191 C88.8867814,28.3385191 88.9069581,28.3438122 88.9260729,28.3554569 C88.9451877,28.3671017 88.9600547,28.3861568 88.970674,28.4115636 C88.9834172,28.438029 88.9929746,28.4697875 88.9993462,28.5089563 C89.0067797,28.5470665 89.0099655,28.5957629 89.0099655,28.6529282 C89.0099655,28.7048004 89.0067797,28.7503209 88.9993462,28.7884311 C88.9929746,28.8275999 88.9834172,28.8593584 88.970674,28.8837066 C88.9600547,28.9080547 88.9451877,28.9260512 88.9260729,28.937696 C88.9069581,28.9493408 88.8867814,28.9546339 88.8634189,28.9546339 L86.6747784,28.9546339 L86.6747784,30.7055855 L88.5522731,30.7055855 C88.5745736,30.7055855 88.5958122,30.7119372 88.614927,30.7246406 C88.6329798,30.737344 88.6489088,30.7553405 88.661652,30.7786301 C88.6754571,30.8019196 88.6850145,30.8336781 88.6903241,30.8739055 C88.6956338,30.914133 88.6988196,30.9617707 88.6988196,31.0157602 C88.6988196,31.0676324 88.6956338,31.1120943 88.6903241,31.1491458 C88.6850145,31.187256 88.6754571,31.2168973 88.661652,31.2401868 C88.6489088,31.2634764 88.6329798,31.2793557 88.614927,31.2899418 C88.5958122,31.2994694 88.5745736,31.3047625 88.5522731,31.3047625 L86.6747784,31.3047625 L86.6747784,33.3013131 L88.893153,33.3013131 C88.9165155,33.3013131 88.9377541,33.3066062 88.9568689,33.318251 C88.9749217,33.3298958 88.9919126,33.3478923 89.0057178,33.3722404 C89.0205848,33.3965886 89.0301422,33.4283471 89.0365138,33.4675159 C89.0418234,33.5056261 89.0450092,33.5543225 89.0450092,33.6114878 C89.0450092,33.66336 89.0418234,33.7088805 89.0365138,33.7469907 C89.0301422,33.7861595 89.0205848,33.817918 89.0057178,33.8443834 C88.9919126,33.8697902 88.9749217,33.8888453 88.9568689,33.9004901 C88.9377541,33.9121348 88.9165155,33.9174279 88.893153,33.9174279 L86.2075286,33.9174279 C86.1406269,33.9174279 86.077973,33.895197 86.0195668,33.8507351 C85.9600986,33.8062732 85.9314265,33.7279356 85.9314265,33.6157222 L85.9314265,28.6402248 C85.9314265,28.5280114 85.9600986,28.4496738 86.0195668,28.4052119 C86.077973,28.36075 86.1406269,28.3385191 86.2075286,28.3385191 L88.8634189,28.3385191 Z M152.75951,28.8911169 C152.438807,28.8911169 152.166953,28.951458 151.948195,29.0710817 C151.729437,29.191764 151.552094,29.3526737 151.415105,29.5548694 C151.279178,29.7560065 151.18148,29.9910194 151.122012,30.2588494 C151.063606,30.527738 151.03281,30.8103886 151.03281,31.1068012 C151.03281,31.4349723 151.06042,31.7356194 151.114579,32.0119183 C151.169799,32.2882172 151.262187,32.5253472 151.390681,32.7254258 C151.521298,32.9255043 151.694393,33.0800623 151.912089,33.191217 C152.128723,33.3013131 152.402701,33.3574198 152.729776,33.3574198 C153.055789,33.3574198 153.329767,33.2970787 153.551711,33.1763964 C153.771531,33.0557141 153.952059,32.8916285 154.086925,32.686257 C154.22179,32.4808854 154.318426,32.2437553 154.37577,31.9727494 C154.434176,31.7028022 154.462848,31.4169758 154.462848,31.1152701 C154.462848,30.7987438 154.434176,30.505507 154.377894,30.2334426 C154.322673,29.9613781 154.229223,29.7263653 154.097544,29.5262868 C153.966926,29.3262083 153.791708,29.1705916 153.57295,29.0583783 C153.354192,28.9461649 153.083399,28.8911169 152.75951,28.8911169 Z M176.681638,29.0803975 L176.67739,29.0803975 L175.712095,31.861383 L177.658615,31.861383 L176.681638,29.0803975 Z M121.963501,29.0803975 L121.959253,29.0803975 L120.993958,31.861383 L122.940478,31.861383 L121.963501,29.0803975 Z M98.0925582,28.950717 L97.4660187,28.950717 L97.4660187,30.8308199 L98.1923798,30.8308199 C98.3888371,30.8308199 98.5576841,30.8064717 98.7010449,30.7598926 C98.8433437,30.7122548 98.96228,30.645562 99.0578538,30.5608727 C99.1523657,30.4761833 99.2224532,30.3766734 99.2670543,30.2612842 C99.3116554,30.1469536 99.333956,30.0209782 99.333956,29.886534 C99.333956,29.6674003 99.2861691,29.4832011 99.1874094,29.3318189 C99.0897118,29.1814954 98.9240505,29.0724579 98.6946733,29.0068237 C98.622462,28.98671 98.5406932,28.9718893 98.4504291,28.9634204 C98.359103,28.9549515 98.2412286,28.950717 98.0925582,28.950717 Z M57.4512769,10 C57.682778,10 57.9153409,10.0169379 58.146842,10.0518722 C58.3794049,10.0878652 58.594977,10.1355029 58.7978059,10.195844 C58.9995728,10.2551266 59.1790392,10.3239366 59.3351432,10.400157 C59.4912471,10.4753188 59.5953163,10.5377772 59.6452271,10.5875321 C59.6961998,10.6383457 59.7301816,10.6806904 59.7471725,10.7166834 C59.7652254,10.7516177 59.7811543,10.7981968 59.7938975,10.8564207 C59.8055787,10.913586 59.8151361,10.9866306 59.8204458,11.0755543 C59.8246935,11.1623609 59.8268174,11.272457 59.8268174,11.4026668 C59.8268174,11.5487559 59.8236316,11.6715554 59.8161981,11.772124 C59.8077026,11.8737512 59.7960214,11.9563232 59.7779685,12.0219575 C59.7609776,12.0875917 59.7354913,12.1352294 59.7025714,12.1648707 C59.6696515,12.1955706 59.6250504,12.2103912 59.56983,12.2103912 C59.5146096,12.2103912 59.4254073,12.1754569 59.3043471,12.1045296 C59.183287,12.0336023 59.0346166,11.9573819 58.858336,11.8748098 C58.6820554,11.7911791 58.4771026,11.7160173 58.2456016,11.6482659 C58.0130386,11.5805144 57.7581751,11.5466387 57.4820729,11.5466387 C57.2633151,11.5466387 57.0742913,11.5720455 56.9128777,11.6260349 C56.7514642,11.6789657 56.6165989,11.7509517 56.5082819,11.8441099 C56.3999649,11.9372682 56.3192581,12.0494815 56.2650996,12.1796913 C56.213065,12.3109598 56.1865167,12.4496385 56.1865167,12.5957276 C56.1865167,12.8116854 56.2459848,12.9990605 56.3649211,13.1578529 C56.4827955,13.3155868 56.6420852,13.4563828 56.8417283,13.5802409 C57.0413714,13.7030404 57.2665009,13.8184296 57.5192405,13.9274671 C57.7709183,14.0343874 58.0279057,14.148718 58.2902027,14.2694002 C58.5535617,14.3900825 58.8105491,14.5277027 59.0622268,14.6812021 C59.3149665,14.8347014 59.5400959,15.0189007 59.7354913,15.2316826 C59.9340724,15.4465818 60.0923002,15.6974739 60.2133604,15.9864762 C60.3344206,16.2765371 60.3949507,16.616353 60.3949507,17.0090997 C60.3949507,17.5214701 60.2993768,17.9734993 60.1071673,18.3598943 C59.9160196,18.7473479 59.6558464,19.070226 59.3287716,19.3285284 C58.9995728,19.5878894 58.6162156,19.7837335 58.177638,19.9128847 C57.7379984,20.0441531 57.2696867,20.110846 56.769517,20.110846 C56.4307609,20.110846 56.1174911,20.0822633 55.8275839,20.0272153 C55.5376766,19.9711086 55.2806892,19.9054744 55.0587456,19.8271368 C54.8368019,19.7498577 54.6509639,19.6672857 54.5033555,19.5815377 C54.3536231,19.4968484 54.2463681,19.420628 54.1815903,19.3560524 C54.1146886,19.2914768 54.0690255,19.1962013 54.0414153,19.0734018 C54.0127432,18.9495437 54,18.7716961 54,18.5409177 C54,18.3853011 54.0042477,18.2529741 54.0138051,18.1492296 C54.0244244,18.0423094 54.0414153,17.9576201 54.0637159,17.8919858 C54.0860164,17.8263516 54.1168124,17.7797725 54.155042,17.7522485 C54.1922096,17.7247244 54.2357488,17.7109624 54.2867215,17.7109624 C54.3568089,17.7109624 54.4576924,17.7522485 54.5851242,17.8358792 C54.7146798,17.9173926 54.8792792,18.0094923 55.0821081,18.1111194 C55.283875,18.211688 55.5238715,18.302729 55.8042214,18.3863597 C56.0845713,18.4689318 56.4095223,18.5112765 56.7769505,18.5112765 C57.0190709,18.5112765 57.2367668,18.4816352 57.4279144,18.4244699 C57.620124,18.366246 57.7825995,18.2836739 57.9164029,18.1788709 C58.0502062,18.0719506 58.1521516,17.9427994 58.2222391,17.7871828 C58.2923266,17.6305076 58.3294942,17.4568945 58.3294942,17.2663435 C58.3294942,17.044034 58.2689641,16.8545417 58.146842,16.6957492 C58.0257818,16.5369567 57.8686159,16.3972194 57.6732206,16.2733612 C57.4799491,16.1505617 57.2590673,16.0351725 57.0116373,15.926135 C56.7642073,15.8181562 56.5093438,15.7048842 56.2470468,15.5831433 C55.9847497,15.462461 55.7298862,15.3258995 55.4835181,15.1713415 C55.2350262,15.0189007 55.0141444,14.8347014 54.8208729,14.6208609 C54.6265395,14.4070204 54.4683117,14.1550697 54.3472516,13.8639501 C54.2261914,13.571772 54.1656613,13.2213699 54.1656613,12.8138026 C54.1656613,12.3458941 54.2527397,11.9351509 54.4268964,11.5805144 C54.5999912,11.2258779 54.83574,10.9315825 55.1309569,10.6976283 C55.4261738,10.4626154 55.7744873,10.2890023 56.1748354,10.1725545 C56.5762455,10.0571653 57.001018,10 57.4512769,10 Z M186.7085,10 C186.940001,10 187.171502,10.0169379 187.404065,10.0518722 C187.635566,10.0878652 187.8522,10.1355029 188.055029,10.195844 C188.255734,10.2551266 188.436263,10.3239366 188.591304,10.400157 C188.749532,10.4753188 188.85254,10.5377772 188.901388,10.5875321 C188.953423,10.6383457 188.988467,10.6806904 189.004396,10.7166834 C189.022449,10.7516177 189.038378,10.7981968 189.050059,10.8564207 C189.062802,10.913586 189.072359,10.9866306 189.076607,11.0755543 C189.080147,11.1334254 189.081799,11.2016473 189.082507,11.2792792 L189.082979,11.4026668 C189.082979,11.5487559 189.080855,11.6715554 189.073421,11.772124 C189.064926,11.8737512 189.053245,11.9563232 189.035192,12.0219575 C189.018201,12.0875917 188.992715,12.1352294 188.959795,12.1648707 C188.927937,12.1955706 188.882274,12.2103912 188.827053,12.2103912 C188.771833,12.2103912 188.682631,12.1754569 188.56157,12.1045296 C188.44051,12.0336023 188.29184,11.9573819 188.115559,11.8748098 C187.938217,11.7911791 187.734326,11.7160173 187.502825,11.6482659 C187.270262,11.5805144 187.015398,11.5466387 186.738234,11.5466387 C186.520538,11.5466387 186.331515,11.5720455 186.170101,11.6260349 C186.008687,11.6789657 185.873822,11.7509517 185.764443,11.8441099 C185.657188,11.9372682 185.577543,12.0494815 185.522323,12.1796913 C185.470288,12.3109598 185.44374,12.4496385 185.44374,12.5957276 C185.44374,12.8116854 185.503208,12.9990605 185.622144,13.1578529 C185.740019,13.3155868 185.899308,13.4563828 186.098952,13.5802409 C186.297533,13.7030404 186.523724,13.8184296 186.776464,13.9274671 C187.02708,14.0343874 187.285129,14.148718 187.548488,14.2694002 C187.810785,14.3900825 188.068834,14.5277027 188.31945,14.6812021 C188.57219,14.8347014 188.797319,15.0189007 188.992715,15.2316826 C189.191296,15.4465818 189.349523,15.6974739 189.470584,15.9864762 C189.591644,16.2765371 189.652174,16.616353 189.652174,17.0090997 C189.652174,17.5214701 189.5566,17.9734993 189.364391,18.3598943 C189.173243,18.7473479 188.91307,19.070226 188.585995,19.3285284 C188.255734,19.5878894 187.873439,19.7837335 187.434861,19.9128847 C186.99416,20.0441531 186.52691,20.110846 186.02674,20.110846 C185.687984,20.110846 185.374714,20.0822633 185.083745,20.0272153 C184.7949,19.9711086 184.537912,19.9054744 184.315969,19.8271368 C184.094025,19.7498577 183.908187,19.6672857 183.760579,19.5815377 C183.610846,19.4968484 183.503591,19.420628 183.438814,19.3560524 C183.371912,19.2914768 183.327311,19.1962013 183.297577,19.0734018 C183.271028,18.9495437 183.257223,18.7716961 183.257223,18.5409177 C183.257223,18.3853011 183.261471,18.2529741 183.271028,18.1492296 C183.281648,18.0423094 183.297577,17.9576201 183.320939,17.8919858 C183.34324,17.8263516 183.374036,17.7797725 183.412265,17.7522485 C183.449433,17.7247244 183.492972,17.7109624 183.543945,17.7109624 C183.614032,17.7109624 183.714916,17.7522485 183.843409,17.8358792 C183.972965,17.9173926 184.136502,18.0094923 184.338269,18.1111194 C184.541098,18.211688 184.781095,18.302729 185.061445,18.3863597 C185.341795,18.4689318 185.666746,18.5112765 186.034174,18.5112765 C186.276294,18.5112765 186.492928,18.4816352 186.684076,18.4244699 C186.876285,18.366246 187.039823,18.2836739 187.173626,18.1788709 C187.307429,18.0719506 187.409375,17.9427994 187.480524,17.7871828 C187.54955,17.6305076 187.586717,17.4568945 187.586717,17.2663435 C187.586717,17.044034 187.525125,16.8545417 187.404065,16.6957492 C187.283005,16.5369567 187.125839,16.3972194 186.931506,16.2733612 C186.737172,16.1505617 186.516291,16.0351725 186.268861,15.926135 C186.021431,15.8181562 185.766567,15.7048842 185.50427,15.5831433 C185.240911,15.462461 184.987109,15.3258995 184.740741,15.1713415 C184.492249,15.0189007 184.271368,14.8347014 184.078096,14.6208609 C183.883763,14.4070204 183.725535,14.1550697 183.604475,13.8639501 C183.483415,13.571772 183.422885,13.2213699 183.422885,12.8138026 C183.422885,12.3458941 183.509963,11.9351509 183.68412,11.5805144 C183.857214,11.2258779 184.092963,10.9315825 184.38818,10.6976283 C184.683397,10.4626154 185.030649,10.2890023 185.432059,10.1725545 C185.833469,10.0571653 186.258241,10 186.7085,10 Z M133.658445,10 C133.889946,10 134.121447,10.0169379 134.35401,10.0518722 C134.585511,10.0878652 134.802145,10.1355029 135.004974,10.195844 C135.205679,10.2551266 135.386207,10.3239366 135.541249,10.400157 C135.699477,10.4753188 135.802484,10.5377772 135.851333,10.5875321 C135.903368,10.6383457 135.938411,10.6806904 135.95434,10.7166834 C135.972393,10.7516177 135.988322,10.7981968 136.000003,10.8564207 C136.012747,10.913586 136.022304,10.9866306 136.027614,11.0755543 C136.030445,11.1334254 136.031861,11.2016473 136.032491,11.2792792 L136.032923,11.4026668 C136.032923,11.5487559 136.030799,11.6715554 136.023366,11.772124 C136.01487,11.8737512 136.003189,11.9563232 135.985136,12.0219575 C135.968145,12.0875917 135.942659,12.1352294 135.909739,12.1648707 C135.877881,12.1955706 135.832218,12.2103912 135.77806,12.2103912 C135.721777,12.2103912 135.632575,12.1754569 135.511515,12.1045296 C135.390455,12.0336023 135.241784,11.9573819 135.065504,11.8748098 C134.889223,11.7911791 134.68427,11.7160173 134.452769,11.6482659 C134.220206,11.5805144 133.965343,11.5466387 133.688179,11.5466387 C133.470483,11.5466387 133.281459,11.5720455 133.120046,11.6260349 C132.958632,11.6789657 132.823767,11.7509517 132.714388,11.8441099 C132.607133,11.9372682 132.527488,12.0494815 132.472267,12.1796913 C132.420233,12.3109598 132.393685,12.4496385 132.393685,12.5957276 C132.393685,12.8116854 132.453153,12.9990605 132.572089,13.1578529 C132.689963,13.3155868 132.849253,13.4563828 133.048896,13.5802409 C133.248539,13.7030404 133.474731,13.8184296 133.726408,13.9274671 C133.978086,14.0343874 134.236135,14.148718 134.498432,14.2694002 C134.76073,14.3900825 135.018779,14.5277027 135.269395,14.6812021 C135.522134,14.8347014 135.747264,15.0189007 135.942659,15.2316826 C136.14124,15.4465818 136.299468,15.6974739 136.420528,15.9864762 C136.541588,16.2765371 136.602118,16.616353 136.602118,17.0090997 C136.602118,17.5214701 136.506545,17.9734993 136.314335,18.3598943 C136.123187,18.7473479 135.863014,19.070226 135.535939,19.3285284 C135.205679,19.5878894 134.823383,19.7837335 134.384806,19.9128847 C133.944104,20.0441531 133.476854,20.110846 132.976685,20.110846 C132.637929,20.110846 132.324659,20.0822633 132.03369,20.0272153 C131.744844,19.9711086 131.487857,19.9054744 131.265913,19.8271368 C131.04397,19.7498577 130.858132,19.6672857 130.710523,19.5815377 C130.560791,19.4968484 130.453536,19.420628 130.388758,19.3560524 C130.321856,19.2914768 130.277255,19.1962013 130.247521,19.0734018 C130.220973,18.9495437 130.207168,18.7716961 130.207168,18.5409177 C130.207168,18.3853011 130.211416,18.2529741 130.220973,18.1492296 C130.231592,18.0423094 130.247521,17.9576201 130.270884,17.8919858 C130.293184,17.8263516 130.32398,17.7797725 130.36221,17.7522485 C130.399377,17.7247244 130.442917,17.7109624 130.493889,17.7109624 C130.563977,17.7109624 130.66486,17.7522485 130.793354,17.8358792 C130.92291,17.9173926 131.087509,18.0094923 131.289276,18.1111194 C131.491043,18.211688 131.731039,18.302729 132.011389,18.3863597 C132.291739,18.4689318 132.61669,18.5112765 132.984118,18.5112765 C133.226239,18.5112765 133.443935,18.4816352 133.63402,18.4244699 C133.827292,18.366246 133.989767,18.2836739 134.123571,18.1788709 C134.257374,18.0719506 134.359319,17.9427994 134.430469,17.7871828 C134.499494,17.6305076 134.536662,17.4568945 134.536662,17.2663435 C134.536662,17.044034 134.476132,16.8545417 134.35401,16.6957492 C134.234012,16.5369567 134.075784,16.3972194 133.88145,16.2733612 C133.687117,16.1505617 133.466235,16.0351725 133.218805,15.926135 C132.971375,15.8181562 132.716512,15.7048842 132.454215,15.5831433 C132.190856,15.462461 131.937054,15.3258995 131.690686,15.1713415 C131.442194,15.0189007 131.221312,14.8347014 131.028041,14.6208609 C130.833707,14.4070204 130.676541,14.1550697 130.555481,13.8639501 C130.433359,13.571772 130.372829,13.2213699 130.372829,12.8138026 C130.372829,12.3458941 130.459907,11.9351509 130.634064,11.5805144 C130.807159,11.2258779 131.042908,10.9315825 131.338125,10.6976283 C131.633342,10.4626154 131.981655,10.2890023 132.382003,10.1725545 C132.783413,10.0571653 133.208186,10 133.658445,10 Z M149.260553,10 C149.492054,10 149.723555,10.0169379 149.956118,10.0518722 C150.187619,10.0878652 150.404253,10.1355029 150.607082,10.195844 C150.807787,10.2551266 150.988315,10.3239366 151.143357,10.400157 C151.300523,10.4753188 151.404592,10.5377772 151.453441,10.5875321 C151.505476,10.6383457 151.540519,10.6806904 151.556448,10.7166834 C151.574501,10.7516177 151.59043,10.7981968 151.602111,10.8564207 C151.614855,10.913586 151.624412,10.9866306 151.62866,11.0755543 C151.633969,11.1623609 151.635031,11.272457 151.635031,11.4026668 C151.635031,11.5487559 151.632907,11.6715554 151.625474,11.772124 C151.616978,11.8737512 151.605297,11.9563232 151.587244,12.0219575 C151.570253,12.0875917 151.544767,12.1352294 151.511847,12.1648707 C151.479989,12.1955706 151.434326,12.2103912 151.379106,12.2103912 C151.323885,12.2103912 151.234683,12.1754569 151.113623,12.1045296 C150.992563,12.0336023 150.843892,11.9573819 150.667612,11.8748098 C150.490269,11.7911791 150.286378,11.7160173 150.054877,11.6482659 C149.822314,11.5805144 149.567451,11.5466387 149.290287,11.5466387 C149.072591,11.5466387 148.883567,11.5720455 148.722153,11.6260349 C148.56074,11.6789657 148.425875,11.7509517 148.316496,11.8441099 C148.209241,11.9372682 148.129596,12.0494815 148.074375,12.1796913 C148.022341,12.3109598 147.995792,12.4496385 147.995792,12.5957276 C147.995792,12.8116854 148.055261,12.9990605 148.174197,13.1578529 C148.292071,13.3155868 148.451361,13.4563828 148.651004,13.5802409 C148.849585,13.7030404 149.075777,13.8184296 149.328516,13.9274671 C149.579132,14.0343874 149.837181,14.148718 150.10054,14.2694002 C150.362837,14.3900825 150.620887,14.5277027 150.871503,14.6812021 C151.124242,14.8347014 151.349372,15.0189007 151.544767,15.2316826 C151.743348,15.4465818 151.901576,15.6974739 152.022636,15.9864762 C152.143696,16.2765371 152.204226,16.616353 152.204226,17.0090997 C152.204226,17.5214701 152.108653,17.9734993 151.916443,18.3598943 C151.725295,18.7473479 151.465122,19.070226 151.138047,19.3285284 C150.807787,19.5878894 150.425491,19.7837335 149.986914,19.9128847 C149.546212,20.0441531 149.078962,20.110846 148.578793,20.110846 C148.240037,20.110846 147.926767,20.0822633 147.635798,20.0272153 C147.346952,19.9711086 147.089965,19.9054744 146.868021,19.8271368 C146.646078,19.7498577 146.46024,19.6672857 146.312631,19.5815377 C146.162899,19.4968484 146.055644,19.420628 145.990866,19.3560524 C145.923964,19.2914768 145.878301,19.1962013 145.849629,19.0734018 C145.823081,18.9495437 145.809276,18.7716961 145.809276,18.5409177 C145.809276,18.3853011 145.813523,18.2529741 145.823081,18.1492296 C145.8337,18.0423094 145.849629,17.9576201 145.872992,17.8919858 C145.895292,17.8263516 145.926088,17.7797725 145.964318,17.7522485 C146.001485,17.7247244 146.045025,17.7109624 146.095997,17.7109624 C146.166085,17.7109624 146.266968,17.7522485 146.3944,17.8358792 C146.525018,17.9173926 146.688555,18.0094923 146.890322,18.1111194 C147.093151,18.211688 147.333147,18.302729 147.613497,18.3863597 C147.893847,18.4689318 148.218798,18.5112765 148.586226,18.5112765 C148.828347,18.5112765 149.044981,18.4816352 149.236128,18.4244699 C149.428338,18.366246 149.591875,18.2836739 149.725679,18.1788709 C149.859482,18.0719506 149.961427,17.9427994 150.032577,17.7871828 C150.101602,17.6305076 150.13877,17.4568945 150.13877,17.2663435 C150.13877,17.044034 150.077178,16.8545417 149.956118,16.6957492 C149.835058,16.5369567 149.677892,16.3972194 149.482496,16.2733612 C149.289225,16.1505617 149.067281,16.0351725 148.820913,15.926135 C148.573483,15.8181562 148.31862,15.7048842 148.056323,15.5831433 C147.792964,15.462461 147.539162,15.3258995 147.292794,15.1713415 C147.044302,15.0189007 146.82342,14.8347014 146.630149,14.6208609 C146.434753,14.4070204 146.277587,14.1550697 146.156527,13.8639501 C146.035467,13.571772 145.974937,13.2213699 145.974937,12.8138026 C145.974937,12.3458941 146.062015,11.9351509 146.236172,11.5805144 C146.409267,11.2258779 146.645016,10.9315825 146.940233,10.6976283 C147.23545,10.4626154 147.582701,10.2890023 147.984111,10.1725545 C148.385521,10.0571653 148.809232,10 149.260553,10 Z M108.177083,10.0067751 C108.600794,10.0067751 108.986275,10.0353578 109.334588,10.0935817 C109.68184,10.1518056 109.986614,10.2216743 110.246787,10.305305 C110.506961,10.3878771 110.723595,10.4778595 110.893504,10.573135 C111.064475,10.6684104 111.185535,10.7520411 111.253498,10.8219098 C111.321462,10.8928371 111.370311,10.9912885 111.401107,11.1204397 C111.430841,11.2474737 111.44677,11.4380246 111.44677,11.6899753 C111.44677,11.8360644 111.440398,11.9620398 111.427655,12.0668428 C111.414912,12.1727045 111.397921,12.2573938 111.374559,12.3187935 C111.351196,12.3823105 111.324648,12.4267724 111.290666,12.4521792 C111.258808,12.4765274 111.219517,12.4892308 111.173853,12.4892308 C111.108014,12.4892308 111.001821,12.4437103 110.855274,12.3537279 C110.709789,12.2626869 110.515456,12.1652941 110.273336,12.0594325 C110.031215,11.9535708 109.741308,11.8551195 109.4068,11.7651371 C109.071229,11.6740961 108.680439,11.6296342 108.237613,11.6296342 C107.76293,11.6296342 107.33391,11.7100891 106.950552,11.8741746 C106.566133,12.0382602 106.239058,12.2690386 105.967204,12.568627 C105.694288,12.8682155 105.485087,13.2281451 105.338541,13.6473572 C105.190932,14.0676279 105.118721,14.531302 105.118721,15.0404965 C105.118721,15.5983874 105.193056,16.0895854 105.341726,16.5151492 C105.491459,16.9396544 105.698535,17.2953496 105.967204,17.5822347 C106.233749,17.8691197 106.555514,18.0850775 106.931438,18.2322252 C107.307361,18.3772556 107.722577,18.4513588 108.177083,18.4513588 C108.397965,18.4513588 108.617785,18.4248934 108.835481,18.3740798 C109.052115,18.3253834 109.253882,18.249163 109.440781,18.1485945 L109.440781,15.8852724 L107.585587,15.8852724 C107.495323,15.8852724 107.424174,15.8281071 107.374263,15.7148352 C107.32329,15.6015632 107.298866,15.4099536 107.298866,15.1378892 C107.298866,14.9970932 107.305238,14.8795868 107.317981,14.7832527 C107.329662,14.6879772 107.348777,14.6117568 107.374263,14.5535329 C107.399749,14.495309 107.430545,14.4519057 107.464527,14.4254403 C107.499571,14.3968577 107.540986,14.3830957 107.585587,14.3830957 L110.893504,14.3830957 C110.97421,14.3830957 111.046422,14.3968577 111.109076,14.4254403 C111.172792,14.4519057 111.228012,14.4942504 111.276861,14.5492984 C111.324648,14.6043465 111.360753,14.6710393 111.38624,14.749377 C111.410664,14.8277146 111.423407,14.9166384 111.423407,15.0172069 L111.423407,18.903388 C111.423407,19.0537116 111.397921,19.1860386 111.344824,19.2993106 C111.290666,19.4125825 111.183411,19.5015063 111.018812,19.5671405 C110.855274,19.6327748 110.651383,19.7005262 110.409263,19.7703949 C110.168204,19.8413222 109.916527,19.9016634 109.656354,19.9524769 C109.397242,20.0022319 109.133883,20.0392835 108.869462,20.0646903 C108.60398,20.0900971 108.337435,20.1028005 108.069828,20.1028005 C107.288247,20.1028005 106.588434,19.9905871 105.97039,19.7672191 C105.352346,19.5427924 104.828814,19.2188557 104.399793,18.7932919 C103.970773,18.3687867 103.642636,17.8500646 103.415383,17.2392429 C103.189192,16.6284212 103.074503,15.936086 103.074503,15.1611788 C103.074503,14.3598061 103.195563,13.6420641 103.437684,13.0068942 C103.680866,12.3696071 104.02387,11.8286541 104.467757,11.3840352 C104.911644,10.9383576 105.44792,10.5985418 106.076583,10.3614117 C106.704184,10.1253402 107.403997,10.0067751 108.177083,10.0067751 Z M122.416839,10.0141855 C122.688694,10.0141855 122.949929,10.037475 123.203731,10.0829955 C123.455408,10.128516 123.687971,10.1867399 123.903543,10.2597845 C124.118053,10.332829 124.311325,10.4175183 124.482296,10.5127938 C124.654329,10.6080693 124.774327,10.6895828 124.842291,10.7583928 C124.910254,10.8250857 124.956979,10.882251 124.981404,10.9277715 C125.00689,10.973292 125.028129,11.0304573 125.041934,11.100326 C125.057863,11.1723119 125.069544,11.254884 125.076977,11.3501595 C125.084411,11.4464936 125.088659,11.564 125.088659,11.704796 C125.088659,11.8551195 125.083349,11.9842707 125.07273,12.0901324 C125.063172,12.1949354 125.045119,12.2806833 125.020695,12.3452589 C124.994147,12.4119518 124.964413,12.4595895 124.929369,12.4892308 C124.893263,12.5199307 124.85291,12.5347513 124.808309,12.5347513 C124.73185,12.5347513 124.637338,12.491348 124.520525,12.4024242 C124.403713,12.3145591 124.253981,12.2171663 124.070267,12.1081289 C123.88549,12.0012086 123.666733,11.9016986 123.411869,11.8148921 C123.157006,11.7259683 122.853293,11.6815064 122.49967,11.6815064 C122.111003,11.6815064 121.764814,11.7609026 121.458977,11.9196951 C121.154203,12.0784876 120.892968,12.3050315 120.67952,12.5993269 C120.46501,12.8925637 120.301472,13.2493174 120.191031,13.6664123 C120.079528,14.0845658 120.02537,14.5535329 120.02537,15.0775481 C120.02537,15.6513182 120.083776,16.1467507 120.202712,16.5680801 C120.321649,16.9872922 120.489434,17.3345184 120.709254,17.6055242 C120.929074,17.87653 121.194556,18.0787258 121.503578,18.2131701 C121.813662,18.3454971 122.1641,18.41219 122.551705,18.41219 C122.905328,18.41219 123.211164,18.3709039 123.469213,18.2883318 C123.726201,18.2047011 123.946021,18.1136601 124.130797,18.0120329 C124.314511,17.912523 124.466367,17.8225406 124.585303,17.7399685 C124.703178,17.6605723 124.795566,17.6192862 124.860343,17.6192862 C124.911316,17.6192862 124.95167,17.630931 124.981404,17.6499861 C125.0122,17.6711584 125.037686,17.7103272 125.057863,17.7706684 C125.078039,17.8310095 125.092906,17.9167575 125.102464,18.0236777 C125.113083,18.1327152 125.118393,18.2766871 125.118393,18.4577105 C125.118393,18.5836858 125.115207,18.6906061 125.106712,18.7784713 C125.099278,18.8673951 125.088659,18.9425568 125.07273,19.0050152 C125.057863,19.0674736 125.037686,19.121463 125.0122,19.1669835 C124.986713,19.2114454 124.94636,19.2643762 124.890078,19.3215415 C124.835919,19.3797654 124.728664,19.4538686 124.569374,19.5449096 C124.410085,19.634892 124.215751,19.7216986 123.986374,19.8042706 C123.756997,19.8868427 123.4947,19.9567114 123.199483,20.0117595 C122.904266,20.0678661 122.585686,20.0953902 122.242683,20.0953902 C121.57048,20.0953902 120.965179,19.9916458 120.425718,19.7862742 C119.886257,19.5787853 119.426441,19.2707279 119.047331,18.8610434 C118.669284,18.4513588 118.379376,17.940047 118.177609,17.3260495 C117.975842,16.7120519 117.874959,15.9974858 117.874959,15.1834097 C117.874959,14.3534544 117.9854,13.6166573 118.208405,12.9719599 C118.429287,12.3283211 118.740433,11.7884267 119.138657,11.3501595 C119.537943,10.9118922 120.015813,10.5805453 120.573327,10.3540013 C121.13084,10.128516 121.744637,10.0141855 122.416839,10.0141855 Z M114.837092,10.1278809 C115.035673,10.1278809 115.197087,10.1352912 115.322395,10.1501118 C115.448764,10.1649324 115.549648,10.1861048 115.625045,10.210453 C115.701504,10.2369184 115.755663,10.2686769 115.789644,10.3089043 C115.822564,10.3491317 115.837431,10.3935936 115.837431,10.4454658 L115.837431,19.6649567 C115.837431,19.7147117 115.822564,19.7602322 115.789644,19.8015182 C115.755663,19.840687 115.701504,19.8745628 115.625045,19.8989109 C115.549648,19.9243177 115.448764,19.9433728 115.322395,19.9592521 C115.197087,19.9740727 115.035673,19.9825416 114.837092,19.9825416 C114.647006,19.9825416 114.486655,19.9740727 114.358161,19.9592521 C114.229667,19.9433728 114.128784,19.9243177 114.051263,19.8989109 C113.976927,19.8745628 113.920645,19.840687 113.888787,19.8015182 C113.855867,19.7602322 113.838876,19.7147117 113.838876,19.6649567 L113.838876,10.4454658 C113.838876,10.3935936 113.855867,10.3491317 113.888787,10.3089043 C113.920645,10.2686769 113.976927,10.2369184 114.05551,10.210453 C114.133031,10.1861048 114.236039,10.1649324 114.362409,10.1501118 C114.487716,10.1352912 114.647006,10.1278809 114.837092,10.1278809 Z M143.982541,10.1275633 C144.271387,10.1275633 144.494392,10.133915 144.653682,10.1466184 C144.81191,10.1593218 144.920227,10.1921389 144.977571,10.2450697 C145.037039,10.2980005 145.050844,10.3763382 145.020048,10.4821998 C144.990314,10.5880615 144.929784,10.7309747 144.838458,10.9119981 L142.159205,16.2315459 L142.159205,19.6646391 C142.159205,19.7154527 142.143276,19.7609732 142.110356,19.8012006 C142.077437,19.8414281 142.022216,19.8742452 141.946819,19.8985934 C141.87036,19.9250588 141.769476,19.9441139 141.640983,19.9589345 C141.511427,19.9737551 141.352137,19.9822241 141.159928,19.9822241 C140.963471,19.9822241 140.802057,19.9737551 140.675687,19.9589345 C140.548255,19.9441139 140.447372,19.9250588 140.369851,19.8985934 C140.290206,19.8742452 140.23711,19.8414281 140.205252,19.8012006 C140.175518,19.7609732 140.16065,19.7154527 140.16065,19.6646391 L140.16065,16.2315459 L137.481398,10.9119981 C137.385824,10.7267402 137.324232,10.5817098 137.296622,10.479024 C137.267949,10.3752795 137.283878,10.2980005 137.342285,10.2450697 C137.399629,10.1921389 137.506884,10.1593218 137.662988,10.1466184 C137.820154,10.133915 138.036788,10.1275633 138.313952,10.1275633 C138.546515,10.1275633 138.731291,10.1328564 138.870404,10.1434425 C139.009517,10.1529701 139.118896,10.1720252 139.199603,10.1995492 C139.280309,10.2270732 139.340839,10.2641248 139.376945,10.3085867 C139.415175,10.3541072 139.45128,10.4123311 139.487386,10.4821998 L140.577989,12.8810247 C140.683121,13.1139204 140.788252,13.3574022 140.890197,13.6135873 C140.995329,13.8697725 141.099398,14.1397197 141.205591,14.4202531 L141.220458,14.4202531 C141.316032,14.1492473 141.414791,13.8856518 141.516737,13.628408 C141.61762,13.3722228 141.715318,13.128741 141.80983,12.8979626 L142.885566,10.5128997 C142.912115,10.4324448 142.943973,10.3678692 142.979016,10.3202315 C143.018308,10.2715351 143.07459,10.2334249 143.151049,10.2037837 C143.226446,10.1730838 143.329454,10.1529701 143.461133,10.1434425 C143.591751,10.1328564 143.765907,10.1275633 143.982541,10.1275633 Z M82.8328169,10.1275633 C83.1312197,10.1275633 83.3680304,10.1317978 83.544311,10.1392081 C83.7205916,10.1466184 83.8586426,10.1646149 83.9574023,10.1921389 C84.0561619,10.2196629 84.1262493,10.260949 84.1687266,10.315997 C84.2112039,10.3721037 84.2473095,10.4472655 84.2781055,10.5435996 L87.3056718,19.1967306 C87.3662019,19.3788127 87.4044315,19.5217259 87.4192985,19.6275875 C87.4352275,19.7323906 87.4139888,19.8117868 87.3587684,19.8647176 C87.303548,19.9176485 87.2047884,19.9504656 87.0635515,19.963169 C86.9212527,19.9748137 86.7290431,19.9822241 86.4816131,19.9822241 C86.2235638,19.9822241 86.0239207,19.9779896 85.879498,19.9705793 C85.7361373,19.963169 85.6256964,19.9483483 85.5492374,19.9250588 C85.4738402,19.9028278 85.4218056,19.8710693 85.3910096,19.8308419 C85.3612755,19.7906145 85.3357892,19.7376837 85.3156125,19.6720494 L84.657215,17.7104331 L80.9786848,17.7104331 L80.3585169,19.6201772 C80.3372782,19.6900459 80.3117919,19.7482698 80.2778101,19.7969662 C80.2448902,19.8446039 80.1917937,19.8827141 80.1195823,19.9102381 C80.0463091,19.9377622 79.9433017,19.9568173 79.8094984,19.9663448 C79.675695,19.976931 79.5004763,19.9822241 79.2827804,19.9822241 C79.0502174,19.9822241 78.8686272,19.9737551 78.7369477,19.9599931 C78.6063301,19.9441139 78.516066,19.9070623 78.4650933,19.849897 C78.4151825,19.7916731 78.3971297,19.7101596 78.4130586,19.604298 C78.4268637,19.499495 78.4650933,19.3576403 78.5256233,19.18191 L81.5457561,10.5192514 C81.5765521,10.4345621 81.6115959,10.3646934 81.6519493,10.3128212 C81.6923027,10.2598903 81.7560185,10.2196629 81.8452208,10.1921389 C81.9333611,10.1646149 82.0565451,10.1466184 82.2115871,10.1392081 C82.367691,10.1317978 82.5758296,10.1275633 82.8328169,10.1275633 Z M171.978132,10.1734014 C172.209633,10.1734014 172.409276,10.1913979 172.575999,10.2305667 C172.74166,10.2676182 172.886083,10.3300766 173.007143,10.4179418 C173.128203,10.5068656 173.229087,10.6222548 173.309794,10.765168 C173.3905,10.9091398 173.46165,11.0859288 173.52218,11.2976521 L175.640733,17.1147496 L175.671529,17.1147496 L177.866541,11.3114141 C177.932381,11.1007494 178.004592,10.9229018 178.082113,10.7768128 C178.159634,10.6307237 178.25096,10.5121587 178.353968,10.4221763 C178.458037,10.3311352 178.580159,10.2676182 178.722458,10.2305667 C178.863695,10.1913979 179.027232,10.1734014 179.214132,10.1734014 L180.553227,10.1734014 C180.690217,10.1734014 180.807029,10.1913979 180.905789,10.2252736 C181.003486,10.2612665 181.083131,10.3120801 181.146847,10.3808902 C181.210563,10.4486417 181.259412,10.5312137 181.29127,10.6296651 C181.32419,10.7270578 181.340119,10.8403298 181.340119,10.9663051 L181.340119,19.6649567 C181.340119,19.7147117 181.325252,19.7602322 181.298703,19.8015182 C181.271093,19.840687 181.22012,19.8745628 181.146847,19.8989109 C181.074636,19.9243177 180.976938,19.9433728 180.855878,19.9592521 C180.734818,19.9740727 180.5819,19.9825416 180.393938,19.9825416 C180.212347,19.9825416 180.061553,19.9740727 179.940493,19.9592521 C179.819433,19.9433728 179.723859,19.9243177 179.65271,19.8989109 C179.58156,19.8745628 179.531649,19.840687 179.500853,19.8015182 C179.471119,19.7602322 179.456252,19.7147117 179.456252,19.6649567 L179.456252,11.7200401 L179.440323,11.7200401 L176.602843,19.6575464 C176.582666,19.7231806 176.549746,19.7771701 176.504083,19.8195147 C176.45842,19.862918 176.396828,19.8957351 176.318245,19.9222005 C176.239662,19.9465487 176.140903,19.9634866 176.019842,19.9708969 C175.898782,19.9783072 175.752236,19.9825416 175.580203,19.9825416 C175.409232,19.9825416 175.263747,19.9751313 175.142687,19.9634866 C175.019503,19.9507832 174.921805,19.9296108 174.842161,19.9031454 C174.76464,19.8745628 174.703048,19.840687 174.656323,19.8015182 C174.611721,19.7602322 174.581987,19.7125944 174.566058,19.6575464 L171.826276,11.7200401 L171.811408,11.7200401 L171.811408,19.6649567 C171.811408,19.7147117 171.797603,19.7602322 171.768931,19.8015182 C171.742383,19.840687 171.690348,19.8745628 171.614951,19.8989109 C171.539554,19.9243177 171.441856,19.9433728 171.32292,19.9592521 C171.205046,19.9740727 171.052128,19.9825416 170.865228,19.9825416 C170.683637,19.9825416 170.531781,19.9740727 170.410721,19.9592521 C170.289661,19.9433728 170.193025,19.9243177 170.119752,19.8989109 C170.046479,19.8745628 169.996568,19.840687 169.967896,19.8015182 C169.940285,19.7602322 169.92648,19.7147117 169.92648,19.6649567 L169.92648,10.9663051 C169.92648,10.7080027 169.994444,10.5121587 170.131433,10.3766557 C170.26736,10.2411528 170.448951,10.1734014 170.676204,10.1734014 L171.978132,10.1734014 Z M94.0580686,10.1738248 C94.1037316,10.1738248 94.145147,10.1865282 94.1833765,10.2151109 C94.2194822,10.2415763 94.2513401,10.2870968 94.2778884,10.3506138 C94.3033747,10.4130721 94.3214276,10.4967029 94.3352327,10.6036231 C94.3469139,10.7084261 94.3532855,10.8375774 94.3532855,10.9879009 C94.3532855,11.13399 94.3469139,11.2578481 94.3352327,11.3615925 C94.3214276,11.4642783 94.3033747,11.547909 94.2778884,11.6103674 C94.2513401,11.6738844 94.2194822,11.7204635 94.1833765,11.7501048 C94.145147,11.7808046 94.1037316,11.7956253 94.0580686,11.7956253 L91.6060691,11.7956253 L91.6060691,19.6653802 C91.6060691,19.7151351 91.5890782,19.7606556 91.5561583,19.8008831 C91.5243004,19.8411105 91.4690799,19.8739276 91.3936828,19.8993344 C91.3182857,19.9247412 91.2163403,19.9437963 91.0867846,19.9596755 C90.9593529,19.9744962 90.7990012,19.9819065 90.6067917,19.9819065 C90.4145821,19.9819065 90.2542305,19.9744962 90.1257368,19.9596755 C89.9972431,19.9437963 89.8952977,19.9247412 89.8199005,19.8993344 C89.7434415,19.8739276 89.6903449,19.8411105 89.657425,19.8008831 C89.6234432,19.7606556 89.6075143,19.7151351 89.6075143,19.6653802 L89.6075143,11.7956253 L87.1555147,11.7956253 C87.104542,11.7956253 87.0620648,11.7808046 87.027021,11.7501048 C86.9909154,11.7204635 86.9611813,11.6738844 86.935695,11.6103674 C86.9102086,11.547909 86.8921558,11.4642783 86.8783507,11.3615925 C86.8666694,11.2578481 86.8602978,11.13399 86.8602978,10.9879009 C86.8602978,10.8375774 86.8666694,10.7084261 86.8783507,10.6036231 C86.8921558,10.4967029 86.9102086,10.4130721 86.935695,10.3506138 C86.9611813,10.2870968 86.9909154,10.2415763 87.027021,10.2151109 C87.0620648,10.1865282 87.104542,10.1738248 87.1555147,10.1738248 L94.0580686,10.1738248 Z M160.168818,10.1738248 C160.212357,10.1738248 160.254834,10.1865282 160.293064,10.2151109 C160.330231,10.2415763 160.362089,10.2870968 160.386514,10.3506138 C160.413062,10.4130721 160.431115,10.4967029 160.443858,10.6036231 C160.456601,10.7084261 160.462973,10.8375774 160.462973,10.9879009 C160.462973,11.13399 160.456601,11.2578481 160.443858,11.3615925 C160.431115,11.4642783 160.413062,11.547909 160.386514,11.6103674 C160.362089,11.6738844 160.330231,11.7204635 160.293064,11.7501048 C160.254834,11.7808046 160.212357,11.7956253 160.168818,11.7956253 L157.714694,11.7956253 L157.714694,19.6653802 C157.714694,19.7151351 157.698765,19.7606556 157.665846,19.8008831 C157.633988,19.8411105 157.578767,19.8739276 157.504432,19.8993344 C157.427973,19.9247412 157.326028,19.9437963 157.196472,19.9596755 C157.067978,19.9744962 156.907627,19.9819065 156.716479,19.9819065 C156.524269,19.9819065 156.363918,19.9744962 156.236486,19.9596755 C156.107992,19.9437963 156.004985,19.9247412 155.928526,19.8993344 C155.853129,19.8739276 155.79897,19.8411105 155.767112,19.8008831 C155.733131,19.7606556 155.717202,19.7151351 155.717202,19.6653802 L155.717202,11.7956253 L153.265202,11.7956253 C153.214229,11.7956253 153.171752,11.7808046 153.136708,11.7501048 C153.100603,11.7204635 153.069807,11.6738844 153.045382,11.6103674 C153.019896,11.547909 153.001843,11.4642783 152.988038,11.3615925 C152.976357,11.2578481 152.971047,11.13399 152.971047,10.9879009 C152.971047,10.8375774 152.976357,10.7084261 152.988038,10.6036231 C153.001843,10.4967029 153.019896,10.4130721 153.045382,10.3506138 C153.069807,10.2870968 153.100603,10.2415763 153.136708,10.2151109 C153.171752,10.1865282 153.214229,10.1738248 153.265202,10.1738248 L160.168818,10.1738248 Z M68.359542,10.1738248 C68.4030812,10.1738248 68.4455585,10.1865282 68.483788,10.2151109 C68.5209556,10.2415763 68.5528136,10.2870968 68.577238,10.3506138 C68.6037863,10.4130721 68.6218391,10.4967029 68.6356442,10.6036231 C68.6473254,10.7084261 68.653697,10.8375774 68.653697,10.9879009 C68.653697,11.13399 68.6473254,11.2578481 68.6356442,11.3615925 C68.6218391,11.4642783 68.6037863,11.547909 68.577238,11.6103674 C68.5528136,11.6738844 68.5209556,11.7204635 68.483788,11.7501048 C68.4455585,11.7808046 68.4030812,11.7956253 68.359542,11.7956253 L65.9064806,11.7956253 L65.9064806,19.6653802 C65.9064806,19.7151351 65.8894897,19.7606556 65.8565698,19.8008831 C65.8247119,19.8411105 65.7694915,19.8739276 65.6951563,19.8993344 C65.6186972,19.9247412 65.5167518,19.9437963 65.3871962,19.9596755 C65.2587025,19.9744962 65.0983508,19.9819065 64.9072032,19.9819065 C64.7149936,19.9819065 64.554642,19.9744962 64.4261483,19.9596755 C64.2976546,19.9437963 64.1957092,19.9247412 64.1203121,19.8993344 C64.043853,19.8739276 63.9896945,19.8411105 63.9578366,19.8008831 C63.9238548,19.7606556 63.9079258,19.7151351 63.9079258,19.6653802 L63.9079258,11.7956253 L61.4559263,11.7956253 C61.4049536,11.7956253 61.3624763,11.7808046 61.3274326,11.7501048 C61.2913269,11.7204635 61.2615928,11.6738844 61.2361065,11.6103674 C61.2106201,11.547909 61.1925673,11.4642783 61.1787622,11.3615925 C61.1670809,11.2578481 61.1607094,11.13399 61.1607094,10.9879009 C61.1607094,10.8375774 61.1670809,10.7084261 61.1787622,10.6036231 C61.1925673,10.4967029 61.2106201,10.4130721 61.2361065,10.3506138 C61.2615928,10.2870968 61.2913269,10.2415763 61.3274326,10.2151109 C61.3624763,10.1865282 61.4049536,10.1738248 61.4559263,10.1738248 L68.359542,10.1738248 Z M73.3093103,10.1726603 C73.5673596,10.1726603 73.778684,10.1779534 73.9454072,10.1885396 C74.1121304,10.1980671 74.2629247,10.2118292 74.3999138,10.2255912 C74.7928284,10.2816978 75.1475135,10.3759147 75.4629071,10.5124762 C75.7783007,10.6479791 76.0459074,10.8258267 76.2646653,11.0449603 C76.4844851,11.2630353 76.6522702,11.5223964 76.7690827,11.8219848 C76.8837713,12.1205147 76.9421775,12.464565 76.9421775,12.8520186 C76.9421775,13.1791311 76.9007622,13.4766024 76.8179315,13.745491 C76.734039,14.0154382 76.6119168,14.2557441 76.4505033,14.4664088 C76.2880278,14.6781321 76.0894466,14.8612727 75.8526359,15.0168893 C75.6158252,15.172506 75.3460947,15.2984813 75.0434442,15.3948154 C75.1889288,15.4646841 75.3269799,15.550432 75.4554736,15.6510006 C75.5839673,15.7515692 75.7050275,15.8733101 75.819716,16.0162233 C75.9322808,16.1612538 76.0395358,16.3232221 76.1404193,16.5074213 C76.2413028,16.690562 76.3400624,16.8991094 76.4366982,17.1298878 L77.2607569,19.053394 C77.336154,19.2450036 77.3871267,19.3847409 77.4115512,19.4726061 C77.4370375,19.5604713 77.4497807,19.6303399 77.4497807,19.6800949 C77.4497807,19.735143 77.4391614,19.7827807 77.4189847,19.8187737 C77.398808,19.8579425 77.3510211,19.889701 77.2756239,19.9129905 C77.2002268,19.9383973 77.088724,19.9563938 76.9421775,19.96698 C76.7966929,19.9765075 76.5959879,19.9818006 76.3443101,19.9818006 C76.1329858,19.9818006 75.9641387,19.9765075 75.8377689,19.96698 C75.7113991,19.9563938 75.6115775,19.9383973 75.5383042,19.9098147 C75.4660929,19.8822907 75.4140583,19.8473563 75.3832623,19.8039531 C75.3535282,19.7616084 75.3280418,19.7107948 75.3078651,19.649395 L74.4296479,17.4686451 C74.3234548,17.2230461 74.2204474,17.0039125 74.1195639,16.8123029 C74.0186805,16.6217519 73.9061157,16.4619008 73.7829317,16.3338082 C73.6597477,16.2057156 73.5163869,16.1083229 73.3549734,16.0437473 C73.1935598,15.9781131 73.0066599,15.9463546 72.7953355,15.9463546 L72.1741057,15.9463546 L72.1741057,19.6642157 C72.1741057,19.7160879 72.1581767,19.7605498 72.1252568,19.8007772 C72.092337,19.8410046 72.0381785,19.8748804 71.9627813,19.8992285 C71.8863223,19.9246353 71.7865007,19.9436904 71.6601309,19.9595697 C71.5337611,19.9733317 71.3723475,19.9818006 71.1758902,19.9818006 C70.9836806,19.9818006 70.823329,19.9733317 70.6948353,19.9595697 C70.5652797,19.9436904 70.4643962,19.9246353 70.3879371,19.8992285 C70.31254,19.8748804 70.2594434,19.8410046 70.2286474,19.8007772 C70.1989134,19.7605498 70.1829844,19.7160879 70.1829844,19.6642157 L70.1829844,10.7993613 C70.1829844,10.5781105 70.2403287,10.4182594 70.3539553,10.3208667 C70.467582,10.2213567 70.606695,10.1726603 70.7744802,10.1726603 L73.3093103,10.1726603 Z M101.363732,10.1724486 C101.409395,10.1724486 101.448686,10.1862106 101.484792,10.2116174 C101.518774,10.2359656 101.54957,10.2804275 101.575056,10.3428859 C101.600542,10.4053442 101.619657,10.4857991 101.631338,10.5842504 C101.645143,10.6816431 101.651515,10.8065599 101.651515,10.9568834 C101.651515,11.098738 101.645143,11.2183617 101.631338,11.3157544 C101.619657,11.4142058 101.600542,11.493602 101.575056,11.5539431 C101.54957,11.6142843 101.518774,11.6587462 101.484792,11.6862702 C101.448686,11.7137942 101.409395,11.7264976 101.363732,11.7264976 L97.8667916,11.7264976 L97.8667916,14.1115605 L100.825332,14.1115605 C100.872057,14.1115605 100.913473,14.1253225 100.95064,14.1528466 C100.98887,14.1803706 101.020728,14.2237739 101.046214,14.2809392 C101.070639,14.3391631 101.089753,14.4175007 101.101435,14.5148934 C101.11524,14.6133447 101.119487,14.7329684 101.119487,14.8737644 C101.119487,15.0198535 101.11524,15.1405357 101.101435,15.2358112 C101.089753,15.3321453 101.070639,15.4073071 101.046214,15.465531 C101.020728,15.5237549 100.98887,15.565041 100.95064,15.5904478 C100.913473,15.6158545 100.872057,15.6274993 100.825332,15.6274993 L97.8667916,15.6274993 L97.8667916,18.3820194 L101.393466,18.3820194 C101.439129,18.3820194 101.480544,18.3957814 101.518774,18.4243641 C101.554879,18.4508295 101.586737,18.4952914 101.613285,18.5556325 C101.638772,18.6159736 101.656825,18.6953699 101.67063,18.7938212 C101.682311,18.8922725 101.688683,19.0140134 101.688683,19.1590439 C101.688683,19.3061916 101.682311,19.4268739 101.67063,19.5253252 C101.656825,19.6237765 101.638772,19.7021141 101.613285,19.7624553 C101.586737,19.8227964 101.554879,19.8672583 101.518774,19.8947823 C101.480544,19.923365 101.439129,19.937127 101.393466,19.937127 L96.4745996,19.937127 C96.3068144,19.937127 96.1677014,19.887372 96.0540748,19.7889207 C95.9404481,19.691528 95.8841658,19.5316769 95.8841658,19.310426 L95.8841658,10.7991496 C95.8841658,10.5778987 95.9404481,10.4180476 96.0540748,10.3195963 C96.1677014,10.221145 96.3068144,10.1724486 96.4745996,10.1724486 L101.363732,10.1724486 Z M167.472251,10.1724486 C167.518976,10.1724486 167.558267,10.1862106 167.593311,10.2116174 C167.629417,10.2359656 167.660213,10.2804275 167.684637,10.3428859 C167.710123,10.4053442 167.729238,10.4857991 167.740919,10.5842504 C167.753663,10.6816431 167.761096,10.8065599 167.761096,10.9568834 C167.761096,11.098738 167.753663,11.2183617 167.740919,11.3157544 C167.729238,11.4142058 167.710123,11.493602 167.684637,11.5539431 C167.660213,11.6142843 167.629417,11.6587462 167.593311,11.6862702 C167.558267,11.7137942 167.518976,11.7264976 167.472251,11.7264976 L163.976373,11.7264976 L163.976373,14.1115605 L166.934913,14.1115605 C166.980577,14.1115605 167.023054,14.1253225 167.060221,14.1528466 C167.098451,14.1803706 167.129247,14.2237739 167.155795,14.2809392 C167.18022,14.3391631 167.198272,14.4175007 167.211016,14.5148934 C167.224821,14.6133447 167.23013,14.7329684 167.23013,14.8737644 C167.23013,15.0198535 167.224821,15.1405357 167.211016,15.2358112 C167.198272,15.3321453 167.18022,15.4073071 167.155795,15.465531 C167.129247,15.5237549 167.098451,15.565041 167.060221,15.5904478 C167.023054,15.6158545 166.980577,15.6274993 166.934913,15.6274993 L163.976373,15.6274993 L163.976373,18.3820194 L167.503047,18.3820194 C167.54871,18.3820194 167.590125,18.3957814 167.628355,18.4243641 C167.665522,18.4508295 167.69738,18.4952914 167.721805,18.5556325 C167.748353,18.6159736 167.766406,18.6953699 167.779149,18.7938212 C167.791892,18.8922725 167.798264,19.0140134 167.798264,19.1590439 C167.798264,19.3061916 167.791892,19.4268739 167.779149,19.5253252 C167.766406,19.6237765 167.748353,19.7021141 167.721805,19.7624553 C167.69738,19.8227964 167.665522,19.8672583 167.628355,19.8947823 C167.590125,19.923365 167.54871,19.937127 167.503047,19.937127 L162.584181,19.937127 C162.416396,19.937127 162.276221,19.887372 162.163656,19.7889207 C162.050029,19.691528 161.992685,19.5316769 161.992685,19.310426 L161.992685,10.7991496 C161.992685,10.5778987 162.050029,10.4180476 162.163656,10.3195963 C162.276221,10.221145 162.416396,10.1724486 162.584181,10.1724486 L167.472251,10.1724486 Z M82.8105164,12.0362488 L82.8020209,12.0362488 L81.4172624,16.187084 L84.1952749,16.187084 L82.8105164,12.0362488 Z M73.06719,11.6907164 L72.1741057,11.6907164 L72.1741057,14.4589985 L73.1882501,14.4589985 C73.4707239,14.4589985 73.7181539,14.4251227 73.9305402,14.3573713 C74.1418645,14.2896198 74.3181451,14.1932857 74.4604439,14.0704862 C74.6016808,13.9466281 74.706812,13.800539 74.7779614,13.6290431 C74.8491108,13.4575473 74.8841545,13.2669963 74.8841545,13.055273 C74.8841545,12.7334536 74.8098193,12.4613892 74.6643347,12.2411969 C74.5177882,12.0188875 74.2788536,11.8632709 73.9454072,11.7722298 C73.8445237,11.7478817 73.7298351,11.7267093 73.6013414,11.7118887 C73.4728477,11.6970681 73.2944433,11.6907164 73.06719,11.6907164 Z" id="Combined-Shape" fill="#000000"></path>
            </g>
        </g>
    </g>
</svg>