<?xml version="1.0" encoding="UTF-8"?>
<svg width="30px" height="30px" viewBox="0 0 30 30" version="1.1" xmlns="http://www.w3.org/2000/svg" xmlns:xlink="http://www.w3.org/1999/xlink">
    <title>F864CDEA-CD3F-4457-B248-FAC4CA345900</title>
    <g id="Styleguide" stroke="none" stroke-width="1" fill="none" fill-rule="evenodd">
        <g id="SSI-Styleguide" transform="translate(-418.000000, -3047.000000)" fill="#8E99AF" fill-rule="nonzero">
            <g id="icons8-linkedin" transform="translate(418.000000, 3047.000000)">
                <path d="M15,0 C23.28375,0 30,6.71625 30,15 C30,23.28375 23.28375,30 15,30 C6.71625,30 0,23.28375 0,15 C0,6.71625 6.71625,0 15,0 Z M10.6282153,12.2958343 L7.4568827,12.2958343 L7.4568827,22.5 L10.6282153,22.5 L10.6282153,12.2958343 Z M18.7027506,12.0421277 C17.1600854,12.0421277 16.1259085,12.8881747 15.7023474,13.6901456 L15.7023474,13.6901456 L15.6593463,13.6901456 L15.6593463,12.2958343 L12.6170171,12.2958343 L12.6170171,22.5 L15.7861996,22.5 L15.7861996,17.4516685 C15.7861996,16.1207839 16.0399062,14.8318253 17.6900742,14.8318253 C19.3165915,14.8318253 19.3380921,16.3540649 19.3380921,17.5376708 L19.3380921,17.5376708 L19.3380921,22.5 L22.5072746,22.5 L22.5072746,16.9034043 C22.5072746,14.1556327 21.9138592,12.0421277 18.7027506,12.0421277 Z M9.01029815,7.14 C7.98902156,7.14 7.16125,7.96777156 7.16125,8.98797312 C7.16125,10.0081747 7.98794653,10.8370213 9.01029815,10.8370213 C10.0294247,10.8370213 10.8582713,10.0081747 10.8582713,8.98797312 C10.8582713,7.96884658 10.0294247,7.14 9.01029815,7.14 Z" id="Combined-Shape"></path>
            </g>
        </g>
    </g>
</svg>