<svg xmlns="http://www.w3.org/2000/svg" width="60" height="60" viewBox="0 0 60 60">
  <g id="Mobile_Applications_" data-name="Mobile Applications " transform="translate(-480 -580)">
    <rect id="Rectangle_2" data-name="Rectangle 2" width="60" height="60" rx="30" transform="translate(480 580)" fill="#4fd6e5"/>
    <g id="Group_4" data-name="Group 4" transform="translate(-31.58 10.748)">
      <path id="Path_11" data-name="Path 11" d="M297.913,1.252H285.267a3.927,3.927,0,0,0-3.927,3.927V33.325a3.927,3.927,0,0,0,3.927,3.927h12.646a3.928,3.928,0,0,0,3.927-3.927V5.179a3.927,3.927,0,0,0-3.927-3.927m2.618,32.073a2.621,2.621,0,0,1-2.618,2.618H285.267a2.621,2.621,0,0,1-2.618-2.618V5.179a2.621,2.621,0,0,1,2.618-2.618h12.646a2.621,2.621,0,0,1,2.618,2.618Z" transform="translate(250.24 580)" fill="#fff" stroke="#fff" stroke-width="0.25"/>
      <path id="Path_12" data-name="Path 12" d="M295.61,47.737a1.129,1.129,0,1,0,1.6,0,1.129,1.129,0,0,0-1.6,0" transform="translate(245.425 564.056)" fill="#fff"/>
      <path id="Path_13" data-name="Path 13" d="M299.4,9.061a.655.655,0,0,0,0-1.309H285.735a.655.655,0,0,0,0,1.309Z" transform="translate(248.948 577.755)" fill="#fff"/>
      <path id="Path_14" data-name="Path 14" d="M290.466,22.507a.654.654,0,0,0-.926,0l-3.532,3.532a.655.655,0,0,0,0,.926l3.532,3.531a.654.654,0,0,0,.926-.926L287.4,26.5l3.069-3.069a.654.654,0,0,0,0-.926" transform="translate(248.693 572.724)" fill="#fff"/>
      <path id="Path_15" data-name="Path 15" d="M302.117,22.507a.654.654,0,1,0-.926.926L304.26,26.5l-3.068,3.069a.654.654,0,1,0,.926.926l3.532-3.531a.655.655,0,0,0,0-.926Z" transform="translate(243.448 572.724)" fill="#fff"/>
    </g>
  </g>
</svg>
