<?xml version="1.0" encoding="UTF-8"?>
<svg width="30px" height="30px" viewBox="0 0 30 30" version="1.1" xmlns="http://www.w3.org/2000/svg" xmlns:xlink="http://www.w3.org/1999/xlink">
    <title>FB212CD8-62D0-4561-8C8E-5916683F3FF8</title>
    <g id="Styleguide" stroke="none" stroke-width="1" fill="none" fill-rule="evenodd">
        <g id="SSI-Styleguide" transform="translate(-518.000000, -3047.000000)" fill="#4FD6E5" fill-rule="nonzero">
            <g id="icons8-twitter_circled-copy" transform="translate(518.000000, 3047.000000)">
                <path d="M15,0 C6.71625,0 0,6.71625 0,15 C0,23.28375 6.71625,30 15,30 C23.28375,30 30,23.28375 30,15 C30,6.71625 23.28375,0 15,0 Z M23.08,11.91875 C23.0875,12.085 23.09125,12.25 23.09125,12.415 C23.09125,17.5 19.2225,23.36 12.14625,23.36 C9.9725,23.36 7.95125,22.72375 6.25,21.63125 C6.55125,21.6675 6.8575,21.68375 7.16875,21.68375 C8.9725,21.68375 10.63,21.07 11.945,20.03625 C10.26125,20.005 8.84,18.8925 8.35125,17.365 C8.58625,17.41 8.8275,17.43375 9.075,17.43375 C9.42625,17.43375 9.7675,17.38625 10.08875,17.29875 C8.32875,16.94625 7.0025,15.39125 7.0025,13.5275 C7.0025,13.51125 7.0025,13.495 7.0025,13.47875 C7.52125,13.7675 8.11375,13.94 8.745,13.96 C7.71375,13.27125 7.03375,12.0925 7.03375,10.75875 C7.03375,10.0525 7.2225,9.39125 7.55375,8.825 C9.45125,11.1525 12.28625,12.685 15.4825,12.845 C15.4175,12.56375 15.38375,12.27 15.38375,11.96875 C15.38375,9.845 17.10625,8.12125 19.23,8.12125 C20.33625,8.12125 21.33625,8.58875 22.0375,9.33625 C22.91375,9.1625 23.7375,8.84375 24.48125,8.4025 C24.19375,9.30125 23.58375,10.05375 22.78875,10.53125 C23.56625,10.43875 24.3075,10.2325 24.99875,9.92625 C24.485,10.69875 23.83375,11.375 23.08,11.91875 Z" id="Shape"></path>
            </g>
        </g>
    </g>
</svg>